<svg width="196" height="102" viewBox="0 0 196 102" fill="none" xmlns="http://www.w3.org/2000/svg">
<path d="M25.24 25.1267C25.24 25.7526 25.1257 26.295 24.9014 26.7515C24.6749 27.2079 24.3834 27.5921 24.0223 27.9062C23.6635 28.2203 23.2576 28.4621 22.8046 28.6339C22.3539 28.8056 21.8964 28.9118 21.4299 28.9548V30.1321H19.1178V28.9548H19.0954C18.3957 28.8847 17.8037 28.731 17.3193 28.496C16.8327 28.261 16.438 27.9582 16.1308 27.5876C15.8235 27.217 15.6037 26.7808 15.467 26.2814C15.3324 25.782 15.2651 25.2329 15.2651 24.634V19.8207C15.2651 19.2083 15.375 18.6659 15.597 18.1959C15.8168 17.7259 16.1106 17.3259 16.4739 16.9982C16.8394 16.6706 17.252 16.422 17.7162 16.2502C18.1782 16.0785 18.6469 15.9926 19.1178 15.9926V15.2446H21.4299L21.4524 15.9926C21.9166 16.022 22.3763 16.1214 22.8293 16.2909C23.28 16.4627 23.6859 16.709 24.0448 17.0299C24.4058 17.353 24.6951 17.7462 24.9149 18.2162C25.1324 18.6885 25.2423 19.2286 25.2423 19.841V25.1267H25.24ZM19.1178 17.8773C18.6021 17.9496 18.1962 18.1259 17.8979 18.4129C17.5974 18.6976 17.4471 19.1111 17.4471 19.6535V25.3414C17.4471 25.6125 17.4965 25.8521 17.5974 26.0577C17.6961 26.2633 17.8261 26.4396 17.9831 26.582C18.1401 26.7243 18.3173 26.8351 18.5191 26.9142C18.7187 26.9933 18.9183 27.0385 19.1178 27.0543V17.8773ZM23.1006 19.6535C23.1006 19.1111 22.9414 18.6908 22.623 18.3903C22.3068 18.092 21.9098 17.9202 21.4299 17.8773L21.4524 27.052C21.6362 27.0226 21.8246 26.9661 22.022 26.8803C22.2193 26.7967 22.3987 26.6814 22.5602 26.539C22.7216 26.3967 22.8517 26.2249 22.9504 26.0261C23.0491 25.8272 23.0984 25.599 23.0984 25.3414V19.6535H23.1006Z" fill="white"/>
<path d="M36.63 26.3244C36.63 27.6215 36.3385 28.6023 35.7554 29.2644C35.1724 29.9265 34.2551 30.2587 33.0016 30.2587C31.7502 30.2587 30.8375 29.9423 30.2679 29.3073C29.6983 28.6746 29.4157 27.7571 29.4157 26.5594V19.075C29.4157 18.492 29.483 17.9564 29.6175 17.4705C29.7521 16.9869 29.9606 16.5689 30.2454 16.2209C30.5302 15.8706 30.9048 15.5994 31.3667 15.4096C31.8309 15.2175 32.3804 15.1204 33.0217 15.1204C33.7057 15.1204 34.2776 15.2085 34.7395 15.387C35.2015 15.5655 35.5715 15.8254 35.8496 16.1666C36.1277 16.5079 36.3273 16.9237 36.4484 17.4073C36.5695 17.8909 36.63 18.4422 36.63 19.0546V26.3244ZM34.3179 18.8829C34.3179 18.4694 34.2282 18.0988 34.0511 17.7711C33.8717 17.4434 33.533 17.2785 33.0352 17.2785C32.7616 17.2785 32.5418 17.3395 32.3714 17.4615C32.1987 17.5835 32.0686 17.7327 31.9745 17.9112C31.8803 18.0897 31.8152 18.2886 31.7816 18.51C31.7457 18.7315 31.7278 18.9349 31.7278 19.1202V26.6069C31.7278 26.991 31.8242 27.3368 32.0171 27.6441C32.2099 27.9492 32.5418 28.1028 33.0128 28.1028C33.4837 28.1028 33.8178 27.9424 34.0197 27.6215C34.2193 27.3006 34.3179 26.9119 34.3179 26.4555V18.8829Z" fill="white"/>
<path d="M45.9658 30.132V23.6306H43.3084V30.132H40.9963V15.2468H43.3084V21.4703H45.9658V15.2468H48.2779V30.132H45.9658Z" fill="white"/>
<path d="M53.7363 30.132V32.9567H51.7897V28.2089L52.6666 28.0168C53.0658 27.5897 53.3371 27.0926 53.4806 26.5299C53.6242 25.9672 53.7094 25.2215 53.7363 24.2949L53.9942 15.249H60.6725V28.0394H61.6144V32.959H59.6679V30.1342H53.7363V30.132ZM55.8151 24.2791C55.786 25.1333 55.7299 25.87 55.6425 26.4892C55.5573 27.1084 55.3935 27.6236 55.1513 28.0372H58.3627V17.4071H55.9856L55.8151 24.2791Z" fill="white"/>
<path d="M75.4891 15.1182C76.1036 15.1182 76.6306 15.2018 77.0746 15.3735C77.5164 15.543 77.8842 15.7803 78.178 16.0831C78.4695 16.3859 78.6848 16.7475 78.8216 17.1655C78.9561 17.5836 79.0234 18.0423 79.0234 18.5417L76.7741 19.1202C76.7741 18.5802 76.671 18.1372 76.4669 17.796C76.2606 17.4525 75.9332 17.283 75.4802 17.283C75.2111 17.283 74.9913 17.3395 74.8231 17.4548C74.6527 17.57 74.5226 17.7147 74.4306 17.8932C74.3387 18.0717 74.2737 18.266 74.2378 18.4717C74.2042 18.6796 74.1862 18.8739 74.1862 19.0615V26.6273C74.1862 26.7696 74.1997 26.9256 74.2288 27.0973C74.2557 27.269 74.3163 27.4295 74.4105 27.5786C74.5024 27.7278 74.6302 27.8543 74.7917 27.9538C74.9532 28.0554 75.1617 28.1052 75.4196 28.1052C76.2696 28.1052 76.7001 27.4928 76.7136 26.2657C77.0993 26.3357 77.485 26.3968 77.8707 26.4465C78.2565 26.4962 78.6422 26.5504 79.0279 26.6069C78.9987 27.7323 78.6893 28.6249 78.095 29.2803C77.503 29.9378 76.6284 30.2655 75.4734 30.2655C74.2468 30.2655 73.3408 29.9559 72.7555 29.3345C72.1701 28.713 71.8764 27.8046 71.8764 26.6069V19.1813C71.8764 18.6254 71.9369 18.1011 72.058 17.6107C72.1791 17.1181 72.3832 16.6865 72.6702 16.3159C72.955 15.9452 73.3273 15.6537 73.7938 15.4391C74.2512 15.2244 74.8164 15.1182 75.4891 15.1182Z" fill="white"/>
<path d="M90.0277 26.3244C90.0277 27.6215 89.7339 28.6023 89.1508 29.2644C88.5678 29.9265 87.6483 30.2587 86.397 30.2587C85.1434 30.2587 84.2329 29.9423 83.6633 29.3073C83.0959 28.6746 82.8111 27.7571 82.8111 26.5594V19.075C82.8111 18.492 82.8784 17.9564 83.0129 17.4705C83.1497 16.9869 83.3583 16.5689 83.6431 16.2209C83.9302 15.8706 84.3024 15.5994 84.7644 15.4096C85.2264 15.2175 85.778 15.1204 86.4172 15.1204C87.1011 15.1204 87.673 15.2085 88.1372 15.387C88.5992 15.5655 88.9692 15.8254 89.245 16.1666C89.5231 16.5079 89.7227 16.9237 89.8438 17.4073C89.9649 17.8909 90.0254 18.4422 90.0254 19.0546V26.3244H90.0277ZM87.7156 18.8829C87.7156 18.4694 87.6259 18.0988 87.4465 17.7711C87.2693 17.4434 86.9307 17.2785 86.4306 17.2785C86.1593 17.2785 85.9395 17.3395 85.7668 17.4615C85.5941 17.5835 85.4618 17.7327 85.3699 17.9112C85.2757 18.0897 85.2107 18.2886 85.1748 18.51C85.1389 18.7315 85.1232 18.9349 85.1232 19.1202V26.6069C85.1232 26.991 85.2196 27.3368 85.4125 27.6441C85.6053 27.9492 85.9372 28.1028 86.4082 28.1028C86.8791 28.1028 87.2133 27.9424 87.4129 27.6215C87.6124 27.3006 87.7134 26.9119 87.7134 26.4555V18.8829H87.7156Z" fill="white"/>
<path d="M95.4009 30.132V32.9567H93.4521V28.2089L94.3312 28.0168C94.7303 27.5897 95.0017 27.0926 95.1452 26.5299C95.2865 25.9672 95.3739 25.2215 95.4009 24.2949L95.6565 15.249H102.337V28.0394H103.279V32.959H101.33V30.1342H95.4009V30.132ZM97.4775 24.2791C97.4483 25.1333 97.39 25.87 97.3048 26.4892C97.2196 27.1084 97.0559 27.6236 96.8137 28.0372H100.025V17.4071H97.6479L97.4775 24.2791Z" fill="white"/>
<path d="M107.026 30.132V15.2468H113.642V17.4072H109.338V21.4703H113.083V23.6736H109.338V27.9717H113.642V30.132H107.026Z" fill="white"/>
<path d="M122.677 20.8059L119.551 30.1298H117.324V15.2469H119.573V24.6792H119.659L122.762 15.2469H125.012V30.1321H122.742V20.8059H122.677ZM119.894 11.8662C119.908 12.0244 119.955 12.1826 120.033 12.3475C120.112 12.5125 120.213 12.6639 120.334 12.8063C120.455 12.9486 120.594 13.0684 120.751 13.1611C120.908 13.2537 121.087 13.2989 121.285 13.2989C121.5 13.2989 121.688 13.2537 121.852 13.1611C122.018 13.0684 122.155 12.9509 122.271 12.8063C122.386 12.6639 122.473 12.5125 122.538 12.3475C122.601 12.1826 122.635 12.0244 122.635 11.8662H124.325C124.296 12.1668 124.218 12.4899 124.088 12.8402C123.96 13.1882 123.769 13.5091 123.52 13.8028C123.269 14.0944 122.964 14.3362 122.599 14.5305C122.235 14.7226 121.796 14.8198 121.282 14.8198C120.726 14.8198 120.255 14.7248 119.869 14.5305C119.484 14.3384 119.17 14.0944 118.925 13.8028C118.683 13.5091 118.504 13.1882 118.392 12.8402C118.275 12.4899 118.212 12.1668 118.199 11.8662H119.894Z" fill="white"/>
<path d="M132.89 15.1182C133.504 15.1182 134.033 15.2018 134.473 15.3735C134.915 15.543 135.283 15.7803 135.576 16.0831C135.868 16.3859 136.083 16.7475 136.218 17.1655C136.355 17.5836 136.422 18.0423 136.422 18.5417L134.175 19.1202C134.175 18.5802 134.072 18.1372 133.868 17.796C133.661 17.4525 133.332 17.283 132.881 17.283C132.612 17.283 132.392 17.3395 132.224 17.4548C132.053 17.57 131.921 17.7147 131.831 17.8932C131.739 18.0717 131.674 18.266 131.641 18.4717C131.605 18.6796 131.587 18.8739 131.587 19.0615V26.6273C131.587 26.7696 131.6 26.9256 131.629 27.0973C131.656 27.269 131.717 27.4295 131.809 27.5786C131.901 27.7278 132.029 27.8543 132.19 27.9538C132.354 28.0554 132.562 28.1052 132.816 28.1052C133.666 28.1052 134.096 27.4928 134.112 26.2657C134.498 26.3357 134.881 26.3968 135.269 26.4465C135.655 26.4962 136.041 26.5504 136.424 26.6069C136.395 27.7323 136.085 28.6249 135.493 29.2803C134.901 29.9378 134.027 30.2655 132.872 30.2655C131.645 30.2655 130.737 29.9559 130.154 29.3345C129.569 28.713 129.275 27.8046 129.275 26.6069V19.1813C129.275 18.6254 129.335 18.1011 129.456 17.6107C129.578 17.1181 129.779 16.6865 130.066 16.3159C130.351 15.9452 130.726 15.6537 131.19 15.4391C131.652 15.2244 132.219 15.1182 132.89 15.1182Z" fill="white"/>
<path d="M144.002 17.4072V30.132H141.69V17.4072H139.292V15.2468H146.399V17.4072H144.002Z" fill="white"/>
<path d="M155.284 22.3471C155.941 22.5595 156.392 22.9663 156.634 23.5651C156.878 24.1639 156.997 24.8464 156.997 25.617C156.997 27.1717 156.665 28.3107 156.004 29.0406C155.338 29.7682 154.322 30.1298 152.952 30.1298H149.868V15.2468H153.122C154.436 15.2468 155.389 15.5926 155.984 16.2841C156.576 16.9756 156.872 17.9766 156.872 19.2873C156.872 19.972 156.753 20.5709 156.52 21.0861C156.282 21.5991 155.872 21.9833 155.286 22.2409V22.3471H155.284ZM154.665 19.3325C154.665 18.6478 154.528 18.1552 154.259 17.8569C153.988 17.5586 153.537 17.4072 152.909 17.4072H152.183V21.2579H152.932C153.53 21.2579 153.968 21.0929 154.248 20.7652C154.524 20.4353 154.665 19.9585 154.665 19.3325ZM154.791 25.4272C154.791 24.7289 154.665 24.2091 154.407 23.8657C154.149 23.5244 153.699 23.3527 153.057 23.3527H152.18V27.9717H153.1C153.47 27.9717 153.766 27.9039 153.988 27.7683C154.21 27.6327 154.38 27.4519 154.501 27.2237C154.622 26.9955 154.701 26.7243 154.739 26.4124C154.775 26.0983 154.791 25.7684 154.791 25.4272Z" fill="white"/>
<path d="M166.589 20.8059L163.465 30.1298H161.238V15.2468H163.487V24.6792H163.573L166.676 15.2468H168.926V30.132H166.656V20.8059H166.589Z" fill="white"/>
<path d="M172.756 30.132L173.59 25.4022C173.689 24.9028 173.848 24.4486 174.061 24.0441C174.274 23.6374 174.575 23.3187 174.96 23.0905C174.274 22.8057 173.805 22.3741 173.547 21.7979C173.292 21.2216 173.162 20.5256 173.162 19.7144C173.162 18.2478 173.516 17.1359 174.222 16.3812C174.927 15.6264 175.895 15.249 177.122 15.249H180.526V30.1342H178.216V23.782H177.618C177.219 23.782 176.849 23.9379 176.514 24.2543C176.178 24.5684 175.94 25.1243 175.797 25.922L175.09 30.1342H172.756V30.132ZM177.315 17.4071C176.618 17.4071 176.129 17.6173 175.848 18.0376C175.57 18.4579 175.433 19.0116 175.433 19.694C175.433 20.4217 175.608 20.9233 175.958 21.2013C176.306 21.4793 176.754 21.6194 177.295 21.6194H178.214V17.4071H177.315Z" fill="white"/>
<path d="M22.2328 42.5225L18.3576 54.0859H15.5948V35.6279H18.3823V47.3223H18.4899L22.3382 35.6279H25.1257V54.0859H22.3135V42.5225H22.2328Z" fill="white"/>
<path d="M39.1439 54.0859V46.0252H35.8518V54.0859H32.9836V35.6279H35.8518V43.3451H39.1439V35.6279H42.0122V54.0859H39.1439Z" fill="white"/>
<path d="M56.1089 54.0859V46.0252H52.8146V54.0859H49.9486V35.6279H52.8146V43.3451H56.1089V35.6279H58.9749V54.0859H56.1089Z" fill="white"/>
<path d="M75.7022 49.3652C75.7022 50.9742 75.3411 52.19 74.6145 53.0125C73.8924 53.8351 72.7555 54.2441 71.1991 54.2441C69.6473 54.2441 68.5193 53.8509 67.8129 53.0645C67.1064 52.2781 66.7544 51.1414 66.7544 49.6567V40.3758C66.7544 39.6504 66.8373 38.9883 67.0078 38.3872C67.1737 37.7861 67.4339 37.2686 67.7882 36.8347C68.1403 36.4008 68.6045 36.0664 69.1786 35.8268C69.7504 35.5873 70.4344 35.4675 71.2283 35.4675C72.076 35.4675 72.7869 35.576 73.361 35.7997C73.9328 36.0212 74.3925 36.3421 74.7379 36.7669C75.081 37.1917 75.3277 37.7047 75.4779 38.3058C75.6282 38.9069 75.7044 39.5871 75.7044 40.3464V49.3652H75.7022ZM72.8339 40.1363C72.8339 39.6233 72.7218 39.1645 72.502 38.7578C72.28 38.351 71.8607 38.1476 71.2417 38.1476C70.9031 38.1476 70.6318 38.2222 70.4187 38.3736C70.2057 38.5228 70.042 38.7081 69.9276 38.9295C69.811 39.151 69.7325 39.3973 69.6899 39.673C69.645 39.9464 69.6248 40.1995 69.6248 40.43V49.711C69.6248 50.1878 69.7437 50.6171 69.9814 50.9968C70.2214 51.3764 70.634 51.5663 71.2171 51.5663C71.8024 51.5663 72.2172 51.3674 72.4639 50.9697C72.7106 50.5719 72.8362 50.0906 72.8362 49.5234V40.1363H72.8339Z" fill="white"/>
<path d="M90.2497 44.4321C91.0637 44.6987 91.6221 45.2026 91.9226 45.9439C92.2232 46.6873 92.3734 47.5347 92.3734 48.4884C92.3734 50.416 91.9608 51.8306 91.14 52.7323C90.317 53.6339 89.0567 54.0859 87.3568 54.0859H83.5332V35.6279H87.5721C89.1979 35.6279 90.3798 36.0573 91.1153 36.9137C91.8486 37.7725 92.2187 39.0131 92.2187 40.6401C92.2187 41.4898 92.0707 42.231 91.7791 42.8683C91.4876 43.5055 90.9785 43.9824 90.2542 44.301V44.4321H90.2497ZM89.4805 40.6921C89.4805 39.8424 89.3123 39.2323 88.9782 38.8617C88.6418 38.4911 88.0834 38.3058 87.3052 38.3058H86.4015V43.0784H87.3299C88.0744 43.0784 88.6171 42.8751 88.9647 42.4683C89.3078 42.0615 89.4805 41.4717 89.4805 40.6921ZM89.6397 48.2511C89.6397 47.3856 89.4805 46.7393 89.1621 46.3145C88.8436 45.8896 88.2852 45.6772 87.4891 45.6772H86.3992V51.4058H87.5407C88.0004 51.4058 88.3682 51.3221 88.6418 51.1527C88.9176 50.9854 89.1284 50.7595 89.2809 50.477C89.4312 50.1945 89.5276 49.8578 89.5724 49.4691C89.6173 49.0827 89.6397 48.6759 89.6397 48.2511Z" fill="white"/>
<path d="M106.791 54.0859L106.073 50.242H102.676C102.55 50.877 102.431 51.5188 102.317 52.1628C102.203 52.8091 102.093 53.4509 101.985 54.0859H99.0652C99.6842 50.9922 100.303 47.9166 100.922 44.8569C101.541 41.7971 102.162 38.7216 102.781 35.6279H105.968L109.711 54.0859H106.791ZM104.295 39.8967C104.118 41.1689 103.932 42.4389 103.739 43.7021C103.541 44.9654 103.331 46.2534 103.1 47.5619H105.62L104.425 39.8967H104.295Z" fill="white"/>
<path d="M125.48 35.628V51.4058H126.676V57.5841H124.285V54.0837H116.533V35.6257H119.401V51.4036H122.612V35.6257H125.48V35.628Z" fill="white"/>
<path d="M140.136 42.5225L136.26 54.0859H133.5V35.6279H136.287V47.3223H136.393L140.243 35.6279H143.031V54.0859H140.216V42.5225H140.136Z" fill="white"/>
<path d="M150.198 54.0859L151.234 48.2195C151.357 47.6003 151.552 47.0376 151.817 46.5337C152.084 46.0297 152.456 45.6343 152.932 45.3518C152.084 44.9993 151.499 44.4637 151.18 43.7496C150.862 43.0333 150.702 42.1723 150.702 41.1644C150.702 39.3453 151.14 37.9668 152.014 37.0313C152.891 36.0957 154.091 35.6279 155.614 35.6279H159.834V54.0859H156.968V46.2083H156.226C155.728 46.2083 155.273 46.4026 154.858 46.7935C154.441 47.1822 154.145 47.8715 153.968 48.8635L153.091 54.0881H150.198V54.0859ZM155.854 38.3058C154.986 38.3058 154.378 38.5657 154.035 39.0877C153.69 39.6097 153.517 40.2921 153.517 41.1418C153.517 42.0435 153.734 42.6672 154.167 43.0107C154.6 43.3541 155.154 43.5281 155.827 43.5281H156.968V38.3058H155.854Z" fill="white"/>
<path d="M173.099 50.0543L171.776 46.633L170.639 43.397H170.504V54.0835H167.638V35.6255H170.426L172.428 40.875L173.879 44.8794H174.012L175.498 40.7688L177.49 35.6233H180.248V54.0812H177.382V43.4467H177.277L176.115 46.7347L174.819 50.0498H173.099V50.0543Z" fill="white"/>
<path d="M102.936 92.5741C101.87 92.5875 100.782 92.5831 99.6893 92.5718L99.6873 92.5718C99.3342 92.5695 98.9809 92.5651 98.6236 92.5606L98.6139 92.5605C98.6134 92.5605 98.6129 92.5605 98.6124 92.5605C97.4149 92.5402 96.2112 92.5065 94.9922 92.4547C69.1414 91.3197 38.4932 82.7063 16.831 60.1902H31.8541C46.4752 76.4561 73.6728 86.2289 102.145 87.0783C127.773 87.8429 154.545 81.3817 174.244 65.8013C168.529 71.4645 162.041 76.0928 155.11 79.816C138.742 88.6058 119.907 92.3262 102.936 92.5741ZM102.936 92.5741L102.943 93.074M102.936 92.5741C102.936 92.5741 102.936 92.5741 102.935 92.5741L102.943 93.074M102.943 93.074C119.975 92.8254 138.893 89.0923 155.347 80.2565M102.943 93.074C101.871 93.0876 100.779 93.083 99.6842 93.0718C99.3292 93.0695 98.9742 93.0651 98.617 93.0606L98.6055 93.0605C97.4035 93.0401 96.1947 93.0062 94.9703 92.9542L155.347 80.2565M155.347 80.2565C163.572 75.8375 171.185 70.1469 177.633 62.9678L155.347 80.2565Z" fill="white" stroke="#CCCCCC"/>
<mask id="path-26-inside-1_730_1871" fill="white">
<path d="M180.407 59.6923C180.387 59.7036 180.369 59.7171 180.351 59.7307C179.728 60.1691 179.147 60.5645 178.6 60.9306C178.284 61.1408 177.985 61.3396 177.692 61.5272C177.447 61.6877 177.196 61.8368 176.952 61.995C176.126 62.5283 175.297 63.0593 174.46 63.5678C174.139 63.7621 173.817 63.9474 173.494 64.1395C172.639 64.648 171.783 65.1496 170.919 65.631C170.603 65.8072 170.285 65.9722 169.968 66.1462C169.089 66.6253 168.21 67.0998 167.322 67.5518C167.01 67.71 166.694 67.8591 166.382 68.0173C165.483 68.467 164.584 68.9099 163.676 69.3325C163.366 69.4771 163.055 69.6105 162.743 69.7528C161.826 70.1709 160.908 70.5822 159.984 70.9754C159.673 71.1064 159.359 71.2285 159.047 71.3573C158.119 71.7414 157.19 72.1211 156.255 72.4781C155.937 72.6002 155.616 72.7132 155.297 72.8307C154.365 73.1787 153.429 73.5244 152.49 73.8476C152.162 73.9628 151.83 74.0645 151.503 74.173C150.57 74.4848 149.635 74.7967 148.698 75.0859C148.354 75.1921 148.009 75.2848 147.666 75.3887C146.74 75.6644 145.811 75.9401 144.883 76.1932C144.517 76.2927 144.152 76.3785 143.786 76.4757C142.874 76.7152 141.963 76.9548 141.048 77.1717C140.656 77.2644 140.261 77.3457 139.869 77.4361C138.978 77.6395 138.088 77.8429 137.198 78.0259C136.774 78.1118 136.35 78.1841 135.924 78.2677C135.063 78.4349 134.202 78.6044 133.341 78.7536C132.865 78.8349 132.39 78.9004 131.914 78.9773C131.102 79.1083 130.291 79.2439 129.479 79.3569C128.932 79.436 128.387 79.4925 127.84 79.5626C127.099 79.6575 126.359 79.7592 125.619 79.8405C124.938 79.9151 124.258 79.9693 123.579 80.0326C122.975 80.0891 122.37 80.1546 121.767 80.2021C120.482 80.3038 119.201 80.3851 117.923 80.4484C117.921 80.4484 117.918 80.4484 117.918 80.4484C117.169 80.4846 116.423 80.5139 115.678 80.5365C115.665 80.5365 115.653 80.5388 115.64 80.5388C114.904 80.5614 114.173 80.5772 113.44 80.5862C113.415 80.5862 113.391 80.5863 113.366 80.5885C112.648 80.5975 111.931 80.5998 111.215 80.5976C111.173 80.5976 111.132 80.5953 111.092 80.5953C110.392 80.5908 109.693 80.5817 108.995 80.5659C108.944 80.5659 108.892 80.5637 108.841 80.5614C108.154 80.5456 107.47 80.5252 106.786 80.4981C106.724 80.4959 106.661 80.4936 106.596 80.4891C105.925 80.462 105.257 80.4281 104.591 80.3896C104.515 80.3851 104.441 80.3806 104.364 80.3738C103.712 80.3354 103.061 80.2925 102.413 80.2428C102.319 80.236 102.225 80.2269 102.129 80.2202C101.498 80.1704 100.87 80.1185 100.245 80.0597C100.139 80.0507 100.034 80.0371 99.9286 80.0281C99.3164 79.9693 98.7041 79.9061 98.0964 79.8383C97.9753 79.8247 97.8542 79.8089 97.7331 79.7953C97.1411 79.7275 96.549 79.6575 95.9593 79.5784C95.8292 79.5626 95.6991 79.5445 95.569 79.5264C94.9927 79.4496 94.4186 79.3705 93.8468 79.2846C93.701 79.262 93.5575 79.2394 93.4117 79.2168C92.8578 79.1309 92.3039 79.0451 91.7522 78.9524C91.593 78.9253 91.436 78.8959 91.2768 78.8688C90.7408 78.7762 90.2071 78.6835 89.6756 78.5818C89.5052 78.5502 89.3392 78.5163 89.1688 78.4846C88.6507 78.3852 88.135 78.2835 87.6214 78.1773C87.4375 78.1389 87.2559 78.0982 87.072 78.0598C86.5764 77.9559 86.083 77.8496 85.5919 77.7367C85.3945 77.6915 85.1994 77.644 85.0021 77.5988C84.5267 77.4881 84.0535 77.3774 83.5826 77.2621C83.3762 77.2101 83.1722 77.1582 82.9658 77.1039C82.5084 76.9887 82.0531 76.8734 81.6001 76.7514C81.3781 76.6926 81.1606 76.6294 80.9408 76.5683C80.508 76.4508 80.0729 76.3311 79.6446 76.2068C79.4136 76.1413 79.1871 76.0712 78.9561 76.0011C78.5413 75.8791 78.1219 75.7548 77.7115 75.626C77.4783 75.5537 77.2473 75.4769 77.0141 75.4023C76.6104 75.2735 76.209 75.1447 75.8098 75.0114C75.5676 74.93 75.3277 74.8464 75.0877 74.7628C74.7042 74.6295 74.3185 74.5006 73.9395 74.3628C73.6884 74.2747 73.4417 74.1798 73.1905 74.0871C72.825 73.9515 72.4594 73.8204 72.0984 73.6803C71.8382 73.5809 71.5848 73.4792 71.3269 73.3775C70.9793 73.2397 70.6317 73.1064 70.2886 72.9663C70.024 72.8578 69.7661 72.747 69.5037 72.6363C69.1718 72.4985 68.8399 72.3606 68.5125 72.2183C68.2434 72.1007 67.9788 71.9787 67.7119 71.8612C67.398 71.7211 67.0795 71.5833 66.7701 71.4386C66.4987 71.3121 66.2318 71.1833 65.9627 71.0567C65.6622 70.9121 65.3595 70.7743 65.0635 70.6274C64.7876 70.4918 64.5163 70.3517 64.2427 70.2138C63.9601 70.0715 63.6731 69.9314 63.395 69.7845C63.1192 69.6398 62.8478 69.493 62.5742 69.3461C62.3029 69.2014 62.0293 69.0568 61.7602 68.9099C61.4843 68.7585 61.2175 68.6026 60.9461 68.4467C60.6882 68.2998 60.4258 68.1529 60.1679 68.0038C59.8921 67.8411 59.623 67.6761 59.3517 67.5111C59.1072 67.3642 58.8583 67.2174 58.6161 67.0659C58.3447 66.8987 58.0824 66.7247 57.8155 66.5552C57.5778 66.4038 57.3401 66.2547 57.1069 66.101C56.831 65.9202 56.5642 65.7349 56.2928 65.5496C56.0753 65.4005 55.8555 65.2559 55.6402 65.1067C55.3621 64.9124 55.093 64.7135 54.8194 64.5169C54.6199 64.3723 54.4135 64.2277 54.2162 64.0808C53.9471 63.8796 53.6825 63.674 53.4178 63.4706C53.225 63.3215 53.0276 63.1746 52.837 63.0254C52.5657 62.8108 52.301 62.5916 52.0342 62.3724C51.8593 62.2277 51.6776 62.0854 51.5049 61.9408C51.2224 61.7035 50.951 61.4639 50.6752 61.2221C50.5249 61.0911 50.3702 60.9623 50.2199 60.8289C49.8006 60.4538 49.3879 60.0719 48.9843 59.6877H32.0821C60.9977 92.1428 140.6 98.938 180.407 59.6923Z"/>
</mask>
<path d="M180.407 59.6923C180.387 59.7036 180.369 59.7171 180.351 59.7307C179.728 60.1691 179.147 60.5645 178.6 60.9306C178.284 61.1408 177.985 61.3396 177.692 61.5272C177.447 61.6877 177.196 61.8368 176.952 61.995C176.126 62.5283 175.297 63.0593 174.46 63.5678C174.139 63.7621 173.817 63.9474 173.494 64.1395C172.639 64.648 171.783 65.1496 170.919 65.631C170.603 65.8072 170.285 65.9722 169.968 66.1462C169.089 66.6253 168.21 67.0998 167.322 67.5518C167.01 67.71 166.694 67.8591 166.382 68.0173C165.483 68.467 164.584 68.9099 163.676 69.3325C163.366 69.4771 163.055 69.6105 162.743 69.7528C161.826 70.1709 160.908 70.5822 159.984 70.9754C159.673 71.1064 159.359 71.2285 159.047 71.3573C158.119 71.7414 157.19 72.1211 156.255 72.4781C155.937 72.6002 155.616 72.7132 155.297 72.8307C154.365 73.1787 153.429 73.5244 152.49 73.8476C152.162 73.9628 151.83 74.0645 151.503 74.173C150.57 74.4848 149.635 74.7967 148.698 75.0859C148.354 75.1921 148.009 75.2848 147.666 75.3887C146.74 75.6644 145.811 75.9401 144.883 76.1932C144.517 76.2927 144.152 76.3785 143.786 76.4757C142.874 76.7152 141.963 76.9548 141.048 77.1717C140.656 77.2644 140.261 77.3457 139.869 77.4361C138.978 77.6395 138.088 77.8429 137.198 78.0259C136.774 78.1118 136.35 78.1841 135.924 78.2677C135.063 78.4349 134.202 78.6044 133.341 78.7536C132.865 78.8349 132.39 78.9004 131.914 78.9773C131.102 79.1083 130.291 79.2439 129.479 79.3569C128.932 79.436 128.387 79.4925 127.84 79.5626C127.099 79.6575 126.359 79.7592 125.619 79.8405C124.938 79.9151 124.258 79.9693 123.579 80.0326C122.975 80.0891 122.37 80.1546 121.767 80.2021C120.482 80.3038 119.201 80.3851 117.923 80.4484C117.921 80.4484 117.918 80.4484 117.918 80.4484C117.169 80.4846 116.423 80.5139 115.678 80.5365C115.665 80.5365 115.653 80.5388 115.64 80.5388C114.904 80.5614 114.173 80.5772 113.44 80.5862C113.415 80.5862 113.391 80.5863 113.366 80.5885C112.648 80.5975 111.931 80.5998 111.215 80.5976C111.173 80.5976 111.132 80.5953 111.092 80.5953C110.392 80.5908 109.693 80.5817 108.995 80.5659C108.944 80.5659 108.892 80.5637 108.841 80.5614C108.154 80.5456 107.47 80.5252 106.786 80.4981C106.724 80.4959 106.661 80.4936 106.596 80.4891C105.925 80.462 105.257 80.4281 104.591 80.3896C104.515 80.3851 104.441 80.3806 104.364 80.3738C103.712 80.3354 103.061 80.2925 102.413 80.2428C102.319 80.236 102.225 80.2269 102.129 80.2202C101.498 80.1704 100.87 80.1185 100.245 80.0597C100.139 80.0507 100.034 80.0371 99.9286 80.0281C99.3164 79.9693 98.7041 79.9061 98.0964 79.8383C97.9753 79.8247 97.8542 79.8089 97.7331 79.7953C97.1411 79.7275 96.549 79.6575 95.9593 79.5784C95.8292 79.5626 95.6991 79.5445 95.569 79.5264C94.9927 79.4496 94.4186 79.3705 93.8468 79.2846C93.701 79.262 93.5575 79.2394 93.4117 79.2168C92.8578 79.1309 92.3039 79.0451 91.7522 78.9524C91.593 78.9253 91.436 78.8959 91.2768 78.8688C90.7408 78.7762 90.2071 78.6835 89.6756 78.5818C89.5052 78.5502 89.3392 78.5163 89.1688 78.4846C88.6507 78.3852 88.135 78.2835 87.6214 78.1773C87.4375 78.1389 87.2559 78.0982 87.072 78.0598C86.5764 77.9559 86.083 77.8496 85.5919 77.7367C85.3945 77.6915 85.1994 77.644 85.0021 77.5988C84.5267 77.4881 84.0535 77.3774 83.5826 77.2621C83.3762 77.2101 83.1722 77.1582 82.9658 77.1039C82.5084 76.9887 82.0531 76.8734 81.6001 76.7514C81.3781 76.6926 81.1606 76.6294 80.9408 76.5683C80.508 76.4508 80.0729 76.3311 79.6446 76.2068C79.4136 76.1413 79.1871 76.0712 78.9561 76.0011C78.5413 75.8791 78.1219 75.7548 77.7115 75.626C77.4783 75.5537 77.2473 75.4769 77.0141 75.4023C76.6104 75.2735 76.209 75.1447 75.8098 75.0114C75.5676 74.93 75.3277 74.8464 75.0877 74.7628C74.7042 74.6295 74.3185 74.5006 73.9395 74.3628C73.6884 74.2747 73.4417 74.1798 73.1905 74.0871C72.825 73.9515 72.4594 73.8204 72.0984 73.6803C71.8382 73.5809 71.5848 73.4792 71.3269 73.3775C70.9793 73.2397 70.6317 73.1064 70.2886 72.9663C70.024 72.8578 69.7661 72.747 69.5037 72.6363C69.1718 72.4985 68.8399 72.3606 68.5125 72.2183C68.2434 72.1007 67.9788 71.9787 67.7119 71.8612C67.398 71.7211 67.0795 71.5833 66.7701 71.4386C66.4987 71.3121 66.2318 71.1833 65.9627 71.0567C65.6622 70.9121 65.3595 70.7743 65.0635 70.6274C64.7876 70.4918 64.5163 70.3517 64.2427 70.2138C63.9601 70.0715 63.6731 69.9314 63.395 69.7845C63.1192 69.6398 62.8478 69.493 62.5742 69.3461C62.3029 69.2014 62.0293 69.0568 61.7602 68.9099C61.4843 68.7585 61.2175 68.6026 60.9461 68.4467C60.6882 68.2998 60.4258 68.1529 60.1679 68.0038C59.8921 67.8411 59.623 67.6761 59.3517 67.5111C59.1072 67.3642 58.8583 67.2174 58.6161 67.0659C58.3447 66.8987 58.0824 66.7247 57.8155 66.5552C57.5778 66.4038 57.3401 66.2547 57.1069 66.101C56.831 65.9202 56.5642 65.7349 56.2928 65.5496C56.0753 65.4005 55.8555 65.2559 55.6402 65.1067C55.3621 64.9124 55.093 64.7135 54.8194 64.5169C54.6199 64.3723 54.4135 64.2277 54.2162 64.0808C53.9471 63.8796 53.6825 63.674 53.4178 63.4706C53.225 63.3215 53.0276 63.1746 52.837 63.0254C52.5657 62.8108 52.301 62.5916 52.0342 62.3724C51.8593 62.2277 51.6776 62.0854 51.5049 61.9408C51.2224 61.7035 50.951 61.4639 50.6752 61.2221C50.5249 61.0911 50.3702 60.9623 50.2199 60.8289C49.8006 60.4538 49.3879 60.0719 48.9843 59.6877H32.0821C60.9977 92.1428 140.6 98.938 180.407 59.6923Z" fill="white" stroke="#CCCCCC" stroke-width="2" mask="url(#path-26-inside-1_730_1871)"/>
<path d="M116.369 74.9008C116.059 74.903 115.748 74.903 115.44 74.903C115.301 74.903 115.167 74.9008 115.028 74.9008C114.577 74.8985 114.129 74.8962 113.682 74.8872C113.438 74.8849 113.193 74.8781 112.949 74.8736C112.507 74.8646 112.07 74.8533 111.633 74.8397C111.386 74.833 111.141 74.8239 110.897 74.8126C110.466 74.7968 110.038 74.7787 109.612 74.7561C109.365 74.7426 109.119 74.729 108.872 74.7154C108.453 74.6928 108.035 74.668 107.621 74.6386C107.372 74.6228 107.125 74.6047 106.876 74.5866C106.47 74.555 106.064 74.5256 105.661 74.4895C105.407 74.4669 105.156 74.4443 104.905 74.4217C104.51 74.3833 104.118 74.3471 103.728 74.3064C103.474 74.2793 103.223 74.2522 102.972 74.2251C102.591 74.1821 102.209 74.1392 101.83 74.0917C101.572 74.0601 101.317 74.0262 101.061 73.9923C100.693 73.9449 100.328 73.8951 99.9645 73.8454C99.7043 73.807 99.4464 73.7686 99.1863 73.7302C98.832 73.6782 98.4777 73.6217 98.1256 73.5675C97.8654 73.5245 97.6053 73.4793 97.3452 73.4341C97.0021 73.3754 96.6612 73.3189 96.3226 73.2556C96.0579 73.2082 95.7978 73.1562 95.5354 73.1065C95.208 73.0432 94.8783 72.9799 94.5532 72.9144C94.2863 72.8602 94.0239 72.8037 93.7593 72.7494C93.4453 72.6816 93.1292 72.6161 92.8174 72.5461C92.5483 72.485 92.2815 72.4218 92.0146 72.3585C91.7163 72.2884 91.4158 72.2184 91.1198 72.1461C90.8462 72.0783 90.5771 72.0105 90.3058 71.9404C90.021 71.8659 89.7361 71.7935 89.4558 71.719C89.18 71.6444 88.9109 71.5676 88.6373 71.4907C88.3659 71.4162 88.0946 71.3393 87.8255 71.2625C87.5497 71.1811 87.2805 71.0975 87.0092 71.0162C86.7491 70.9371 86.4889 70.858 86.231 70.7766C85.9574 70.6908 85.6883 70.6004 85.417 70.51C85.1703 70.4286 84.9191 70.3473 84.6747 70.2637C84.4011 70.171 84.132 70.0738 83.8629 69.9767C83.6274 69.8931 83.3897 69.8095 83.1565 69.7236C82.8851 69.6241 82.6183 69.5202 82.3491 69.4162C82.1249 69.3304 81.8984 69.2468 81.6764 69.1586C81.4073 69.0502 81.1427 68.9417 80.8758 68.8332C80.6605 68.7451 80.4452 68.6592 80.2344 68.5688C79.9698 68.4558 79.7074 68.3406 79.4473 68.2253C79.2432 68.1349 79.0369 68.0468 78.8351 67.9542C78.5704 67.8344 78.3103 67.7101 78.0502 67.5858C77.8595 67.4954 77.6644 67.405 77.4761 67.3146C77.2137 67.1881 76.9558 67.0548 76.6979 66.926C76.5185 66.8333 76.3346 66.7452 76.1574 66.6525C75.8973 66.5169 75.6439 66.3768 75.3882 66.239C75.22 66.1463 75.0474 66.0559 74.8814 65.9633C74.628 65.8209 74.3791 65.6763 74.1302 65.5317C73.9687 65.439 73.805 65.3464 73.6458 65.2515C73.3968 65.1023 73.1546 64.9509 72.9102 64.7995C72.7599 64.7069 72.6052 64.6142 72.4572 64.5193C72.215 64.3634 71.9773 64.2052 71.7396 64.0493C71.5961 63.9543 71.4503 63.8617 71.3113 63.7645C71.0713 63.6018 70.8403 63.4346 70.6071 63.2674C70.477 63.1747 70.3425 63.0843 70.2146 62.9894C69.9814 62.8199 69.7549 62.6459 69.5262 62.4719C69.4051 62.3793 69.2795 62.2889 69.1584 62.194C68.9252 62.0109 68.6987 61.8234 68.4722 61.6381C68.3668 61.5522 68.2569 61.4663 68.1515 61.3804C67.9026 61.1703 67.6604 60.9579 67.4204 60.7454C67.3442 60.6777 67.2657 60.6144 67.1917 60.5466C66.8799 60.2641 66.575 59.9794 66.2789 59.6924H51.9333H48.9708C49.3745 60.0765 49.7849 60.4585 50.2065 60.8336C50.3545 60.9669 50.5092 61.0957 50.6617 61.2268C50.9376 61.4686 51.2089 61.7104 51.4915 61.9454C51.6642 62.09 51.8458 62.2324 52.0207 62.377C52.2876 62.594 52.55 62.8154 52.8236 63.0301C53.0142 63.1815 53.2115 63.3261 53.4044 63.4753C53.669 63.6787 53.9314 63.8843 54.2027 64.0854C54.4001 64.2323 54.6064 64.3747 54.806 64.5215C55.0796 64.7181 55.3487 64.917 55.6268 65.1114C55.8421 65.2605 56.0618 65.4051 56.2794 65.5543C56.5507 65.7373 56.8176 65.9249 57.0934 66.1057C57.3266 66.2593 57.5666 66.4085 57.8021 66.5599C58.0689 66.7316 58.3335 66.9034 58.6027 67.0706C58.8448 67.222 59.0938 67.3666 59.3382 67.5158C59.6096 67.6807 59.8787 67.8457 60.1545 68.0084C60.4102 68.1575 60.6725 68.3022 60.9327 68.4513C61.204 68.6072 61.4731 68.7632 61.7467 68.9146C62.0158 69.0615 62.2894 69.2061 62.5608 69.3507C62.8344 69.4976 63.1057 69.6445 63.3816 69.7891C63.6619 69.936 63.9467 70.0761 64.2292 70.2185C64.5028 70.3563 64.7742 70.4964 65.05 70.632C65.346 70.7789 65.6488 70.919 65.9493 71.0614C66.2184 71.1879 66.4853 71.319 66.7566 71.4433C67.0683 71.5879 67.3845 71.7257 67.6985 71.8659C67.9654 71.9834 68.23 72.1054 68.4991 72.2229C68.8265 72.363 69.1584 72.5009 69.4903 72.641C69.7527 72.7517 70.0128 72.8624 70.2752 72.9709C70.6183 73.111 70.9681 73.2466 71.3135 73.3822C71.5691 73.4816 71.8248 73.5856 72.0849 73.685C72.446 73.8228 72.8115 73.9562 73.1771 74.0917C73.426 74.1821 73.6749 74.277 73.9261 74.3674C74.3051 74.503 74.6908 74.6341 75.0743 74.7674C75.3142 74.8488 75.5542 74.9346 75.7964 75.016C76.1956 75.1493 76.5992 75.2781 77.0006 75.4069C77.2339 75.4815 77.4626 75.5583 77.6981 75.6307C78.1107 75.7595 78.5278 75.8838 78.9427 76.0058C79.1714 76.0736 79.4002 76.1459 79.6312 76.2114C80.0617 76.338 80.4945 76.4555 80.9274 76.573C81.1471 76.634 81.3647 76.6973 81.5867 76.756C82.0397 76.8781 82.4949 76.9933 82.9524 77.1086C83.1587 77.1605 83.3628 77.2148 83.5691 77.2667C84.04 77.382 84.5155 77.495 84.9886 77.6035C85.186 77.6487 85.3811 77.6961 85.5784 77.7413C86.0696 77.852 86.5652 77.9582 87.0585 78.0645C87.2424 78.1029 87.4241 78.1435 87.608 78.182C88.1215 78.2882 88.6373 78.3899 89.1553 78.4893C89.3235 78.5209 89.4917 78.5571 89.6621 78.5865C90.1936 78.6859 90.7274 78.7808 91.2633 78.8735C91.4226 78.9006 91.5795 78.9299 91.7388 78.9571C92.2904 79.0497 92.8421 79.1356 93.3983 79.2215C93.544 79.2441 93.6875 79.2667 93.8333 79.2893C94.4052 79.3751 94.9815 79.4542 95.5556 79.5311C95.6857 79.5491 95.8157 79.5672 95.9458 79.583C96.5356 79.6621 97.1254 79.7299 97.7197 79.8C97.8408 79.8135 97.9619 79.8293 98.083 79.8429C98.6907 79.9107 99.3029 79.974 99.9151 80.0327C100.021 80.0418 100.126 80.0553 100.231 80.0644C100.857 80.1231 101.485 80.1751 102.115 80.2248C102.209 80.2316 102.303 80.2406 102.4 80.2474C103.048 80.2971 103.698 80.3401 104.351 80.3785C104.427 80.383 104.501 80.3898 104.577 80.3943C105.243 80.4327 105.914 80.4643 106.582 80.4937C106.645 80.496 106.708 80.4982 106.773 80.5028C107.457 80.5299 108.141 80.5525 108.827 80.566C108.879 80.5683 108.93 80.5706 108.982 80.5706C109.679 80.5864 110.379 80.5954 111.079 80.5999C111.119 80.5999 111.159 80.6022 111.202 80.6022C111.917 80.6044 112.635 80.6022 113.353 80.5932C113.377 80.5909 113.402 80.5909 113.427 80.5909C114.158 80.5819 114.891 80.566 115.627 80.5434C115.64 80.5434 115.651 80.5412 115.665 80.5412C116.411 80.5186 117.158 80.4892 117.905 80.453C117.907 80.453 117.907 80.453 117.909 80.453C119.188 80.3898 120.468 80.3084 121.753 80.2067C122.356 80.1593 122.962 80.0937 123.565 80.0372C124.245 79.974 124.924 79.9197 125.606 79.8452C126.346 79.7638 127.086 79.6621 127.826 79.5672C128.373 79.4972 128.918 79.4384 129.465 79.3616C130.277 79.2486 131.089 79.113 131.901 78.9819C132.376 78.9051 132.852 78.8396 133.327 78.7582C134.188 78.6113 135.049 78.4396 135.911 78.2724C136.334 78.191 136.758 78.1164 137.184 78.0306C138.075 77.8475 138.965 77.6441 139.855 77.4408C140.248 77.3526 140.642 77.2713 141.035 77.1764C141.95 76.9594 142.86 76.7199 143.773 76.4803C144.138 76.3832 144.504 76.2973 144.87 76.1979C145.8 75.9448 146.726 75.6691 147.653 75.3934C147.996 75.2894 148.341 75.1968 148.684 75.0906C149.622 74.8013 150.557 74.4917 151.49 74.1776C151.819 74.0669 152.149 73.9652 152.476 73.8522C153.416 73.5291 154.349 73.1833 155.284 72.8353C155.602 72.7178 155.923 72.6048 156.242 72.4828C157.177 72.1235 158.105 71.7461 159.034 71.3619C159.345 71.2331 159.659 71.1111 159.971 70.98C160.895 70.5891 161.814 70.1755 162.729 69.7575C163.041 69.6174 163.353 69.4818 163.662 69.3372C164.57 68.9146 165.47 68.4717 166.369 68.022C166.683 67.866 166.997 67.7169 167.309 67.5564C168.197 67.1022 169.076 66.6299 169.955 66.1509C170.271 65.9769 170.59 65.8119 170.906 65.6356C171.769 65.1543 172.626 64.6504 173.48 64.1442C173.801 63.9521 174.126 63.7668 174.447 63.5724C175.285 63.064 176.113 62.5352 176.938 61.9996C177.488 61.6448 178.044 61.3014 178.589 60.9353C179.176 60.5421 179.757 60.1421 180.34 59.7353C180.347 59.7308 180.356 59.724 180.363 59.7195C180.374 59.7127 180.385 59.7059 180.396 59.6969C177.192 61.1567 174.009 62.5036 170.854 63.7374C151.155 71.4388 132.549 74.7787 116.369 74.9008Z" fill="white"/>
<path d="M180.677 59.5026C180.654 59.471 180.623 59.4416 180.587 59.4167C180.551 59.3941 180.513 59.3828 180.488 59.376C180.441 59.3647 180.34 59.3647 180.273 59.3964C177.113 60.8359 173.909 62.1917 170.749 63.4278C152.434 70.5891 133.63 74.442 116.367 74.5731C116.059 74.5776 115.745 74.5776 115.44 74.5776C94.2415 74.5776 76.4109 69.066 66.5211 59.4574C66.4606 59.3986 66.3754 59.3647 66.2924 59.3647H15.6665C15.5365 59.3647 15.4199 59.4393 15.366 59.5568C15.3122 59.6743 15.3346 59.8122 15.4244 59.9093C25.5809 70.7382 38.4039 79.1537 53.539 84.9161C66.2363 89.7544 80.5574 92.6446 94.9568 93.2751C96.9527 93.3632 98.9822 93.4084 100.989 93.4084C101.64 93.4084 102.299 93.4039 102.945 93.3949C111.944 93.2638 120.858 92.1881 129.436 90.1973C138.877 88.0075 147.646 84.758 155.502 80.5367C165.564 75.1313 174.03 68.1869 180.659 59.8958C180.661 59.8935 180.663 59.8913 180.663 59.889C180.665 59.8868 180.668 59.8845 180.668 59.8822C180.692 59.8461 180.71 59.8122 180.721 59.7625H180.724C180.737 59.7173 180.737 59.6676 180.726 59.6156C180.717 59.5749 180.699 59.5365 180.677 59.5026ZM97.4528 73.5517C97.6703 73.5901 97.8901 73.6263 98.1099 73.6624C98.462 73.7189 98.8163 73.7731 99.1706 73.8274L99.1998 73.8319C99.4487 73.8703 99.6976 73.9065 99.9488 73.9426C100.312 73.9946 100.68 74.0421 101.045 74.0895C101.301 74.1234 101.559 74.1573 101.817 74.1889C102.196 74.2364 102.577 74.2793 102.976 74.3223C103.223 74.3494 103.467 74.3765 103.716 74.4036C104.106 74.4443 104.499 74.4827 104.894 74.5189L105.071 74.5347C105.264 74.5528 105.457 74.5708 105.649 74.5867C106.051 74.6206 106.459 74.6522 106.865 74.6838C107.114 74.7019 107.36 74.72 107.609 74.7381C108.024 74.7675 108.444 74.7923 108.863 74.8149C109.11 74.8285 109.356 74.842 109.603 74.8556C110.029 74.8759 110.46 74.894 110.89 74.9121L111.072 74.9189C111.256 74.9256 111.442 74.9324 111.626 74.9392C112.063 74.9528 112.503 74.964 112.949 74.9731C113.191 74.9776 113.433 74.9821 113.678 74.9866C114.126 74.9934 114.575 74.9979 115.026 74.9979L115.36 75.0002C115.694 75.0025 116.028 75.0025 116.367 75.0002C133.679 74.8691 152.539 71.0049 170.901 63.8233C173.942 62.6347 177.019 61.3353 180.06 59.9568C173.509 68.0536 165.18 74.8511 155.295 80.1616C140.436 88.1409 121.843 92.6898 102.938 92.9678C102.023 92.9791 101.101 92.9881 100.162 92.9723L99.6819 92.9655C99.3231 92.9633 98.9643 92.961 98.6033 92.9542C97.2241 92.9294 96.0714 92.8955 94.9725 92.848C76.2875 92.0277 41.2049 86.6359 15.8998 59.7873H66.2476C66.5279 60.0608 66.8261 60.3387 67.1334 60.6167C67.1715 60.6506 67.2119 60.6867 67.2522 60.7206C67.2903 60.7523 67.3262 60.7839 67.3621 60.8155C67.6043 61.0302 67.8443 61.2426 68.0954 61.4528C68.1582 61.5048 68.2233 61.5567 68.286 61.6087L68.5148 61.794C68.7099 61.9545 68.9027 62.1126 69.1046 62.2686C69.1786 62.3273 69.2548 62.3838 69.3311 62.4403L69.5867 62.6347C69.7773 62.7793 69.9657 62.9239 70.1608 63.0663C70.2416 63.125 70.3268 63.1838 70.4098 63.2425L70.6475 63.4098C70.8493 63.5544 71.0534 63.699 71.2597 63.8414C71.3471 63.9024 71.4391 63.9611 71.5288 64.0199L71.762 64.1736C71.9751 64.3159 72.1881 64.4583 72.4079 64.5962C72.5065 64.6594 72.6097 64.7227 72.7106 64.7837L72.9551 64.9351C73.1681 65.0684 73.3811 65.1995 73.5987 65.3306C73.7018 65.3916 73.8072 65.4526 73.9126 65.5136L74.2333 65.6989C74.4329 65.8142 74.6325 65.9294 74.8343 66.0447C74.9465 66.1079 75.0631 66.169 75.1774 66.2322L75.525 66.4198C75.7201 66.526 75.913 66.6322 76.1126 66.7339C76.2247 66.7927 76.3391 66.8492 76.4535 66.9079L76.8212 67.0932C77.0231 67.1949 77.2249 67.2989 77.4312 67.3983C77.5568 67.4593 77.6869 67.5203 77.8147 67.5813L78.1376 67.7327C78.3552 67.8367 78.5727 67.9384 78.7925 68.0401C78.9158 68.0943 79.0391 68.1485 79.1625 68.205L79.6132 68.4039C79.8061 68.4898 79.999 68.5734 80.1941 68.657C80.3331 68.7157 80.4766 68.7745 80.6179 68.8333L81.0283 69.0005C81.2301 69.0841 81.432 69.1654 81.6383 69.2468C81.7885 69.3055 81.9388 69.3643 82.0913 69.4208L82.4254 69.5496C82.6564 69.6377 82.8851 69.7259 83.1184 69.8117C83.2866 69.8728 83.457 69.9338 83.6274 69.9948L83.8965 70.0897C84.1432 70.1778 84.3899 70.266 84.6388 70.3518C84.8115 70.4106 84.9864 70.4693 85.1636 70.5258L85.5179 70.6433C85.7422 70.7179 85.9687 70.7925 86.1974 70.8648C86.3835 70.9236 86.5697 70.98 86.758 71.0388L87.1864 71.1699C87.3882 71.2309 87.59 71.2942 87.7941 71.3529C88.0071 71.4139 88.2224 71.4749 88.4377 71.536L88.6306 71.5902C88.8952 71.6648 89.1576 71.7393 89.4267 71.8116C89.6778 71.8794 89.9313 71.9427 90.1847 72.0082L90.4448 72.076C90.6601 72.1325 90.8754 72.1868 91.0952 72.241C91.3867 72.3133 91.6782 72.3811 91.9899 72.4534L92.1469 72.4896C92.3622 72.5416 92.5775 72.5913 92.795 72.641C93.1 72.7088 93.4095 72.7743 93.7369 72.8444L93.8445 72.867C94.0733 72.9144 94.2998 72.9641 94.5308 73.0116C94.8559 73.0771 95.1833 73.1404 95.513 73.2037L95.6789 73.2353C95.8853 73.276 96.0916 73.3144 96.3001 73.3528C96.6208 73.4116 96.9438 73.4658 97.2667 73.5223L97.4528 73.5517Z" fill="#CCCCCC"/>
</svg>
