<svg width="21" height="18" viewBox="0 0 21 18" fill="none" xmlns="http://www.w3.org/2000/svg">
<path d="M19.16 1.99992C18.1 0.937129 16.6948 0.288461 15.1983 0.171091C13.7019 0.0537212 12.2128 0.475387 11 1.35992C9.72766 0.413559 8.14399 -0.0155675 6.56792 0.158959C4.99185 0.333485 3.54044 1.0987 2.50597 2.30051C1.47151 3.50231 0.930823 5.05144 0.992802 6.63594C1.05478 8.22043 1.71482 9.72259 2.84 10.8399L9.05 17.0599C9.57002 17.5717 10.2704 17.8585 11 17.8585C11.7296 17.8585 12.43 17.5717 12.95 17.0599L19.16 10.8399C20.3276 9.66519 20.9829 8.07619 20.9829 6.41992C20.9829 4.76365 20.3276 3.17465 19.16 1.99992Z" fill="white"/>
</svg>
