<?xml version="1.0" encoding="UTF-8"?>
<!DOCTYPE svg PUBLIC "-//W3C//DTD SVG 1.1//EN" "http://www.w3.org/Graphics/SVG/1.1/DTD/svg11.dtd">
<!-- Creator: CorelDRAW -->
<svg xmlns="http://www.w3.org/2000/svg" xml:space="preserve" width="55.1217mm" height="7.9548mm" version="1.1" style="shape-rendering:geometricPrecision; text-rendering:geometricPrecision; image-rendering:optimizeQuality; fill-rule:evenodd; clip-rule:evenodd"
viewBox="0 0 742.5 107.15"
 xmlns:xlink="http://www.w3.org/1999/xlink"
 xmlns:xodm="http://www.corel.com/coreldraw/odm/2003">
 <defs>
  <style type="text/css">
   <![CDATA[
    .fil0 {fill:#EF7F1A}
    .fil1 {fill:#EF7F1A;fill-rule:nonzero}
   ]]>
  </style>
 </defs>
 <g id="Слой_x0020_1">
  <metadata id="CorelCorpID_0Corel-Layer"/>
  <path class="fil0" d="M137.32 78.96l17.8 15.04 -24.64 -11.88 6.83 -3.16zm34.76 -21l0 49.2 44.74 -88.13 -76.82 23.33 -31.6 -42.35 -31.85 42.46 -22.75 -6.91 -18.09 -5.49 -35.73 -11.04 44.74 88.13 14.25 -19.19 17.16 19.19 49.07 -22.6 46.86 22.6 0 -49.2zm-92.11 42.6l8.22 -33.89 31.82 15.37 -40.04 18.52zm-1.76 -38.71l5.85 2.82 -8.54 35.17 -13.82 -15.57 16.51 -22.43zm-32.68 36.88l-30.46 -60.22 40.89 46.03 -10.42 14.19zm28.58 -38.86l-15.45 20.99 -44.26 -49.84 59.71 28.85zm13.85 -11.27l-2.79 11.61 -4.23 -2.04 7.02 -9.57zm45.59 27.17l-8.29 3.83 -36 -17.39 4.82 -19.87 39.47 33.43zm34.06 -10.8l0 33.73 -25.81 -21.82 25.81 -11.92z"/>
  <g id="_2101937824880">
   <path class="fil0" d="M551.86 94.48c0,5.35 -4.34,9.69 -9.69,9.69 -5.35,0 -9.69,-4.34 -9.69,-9.69 0,-5.35 4.34,-9.69 9.69,-9.69 5.35,0 9.69,4.34 9.69,9.69zm2.98 0c0,-7 -5.67,-12.67 -12.67,-12.67 -7,0 -12.67,5.67 -12.67,12.67 0,7 5.67,12.67 12.67,12.67 7,0 12.67,-5.67 12.67,-12.67z"/>
   <path class="fil1" d="M542.3 93.75l-3.11 0 0 -4.04 0.45 -0 2.67 -0.02c2.14,0 2.85,0.41 2.85,2 0,1.59 -0.71,2.04 -2.85,2.06zm4.17 3.05c-0.34,-1.24 -1.17,-1.76 -1.91,-1.91l0 -0.09c2.01,-0.22 2.78,-1.33 2.78,-3.26 0,-2.94 -1.42,-3.78 -5,-3.78 -2.05,0 -3.18,0.01 -4.45,0.1 -0.02,0 -0.04,0 -0.06,0 -0.44,0.03 -0.8,0.43 -0.8,0.93l0 12.05 2.15 0 0 -5.18 3.16 0.02c0.99,0 1.56,0.32 1.93,1.16l1.31 4.01 2.31 0 -1.43 -4.04z"/>
  </g>
  <path class="fil1" d="M228.42 87.8c3.85,1.09 5.63,1.9 5.63,6.18 0,4.82 -1.93,5.7 -8.86,5.7 -3.7,0 -6.78,-0.07 -16.88,-0.27l-0.62 6.25c7.71,1.36 14.03,1.49 17.26,1.49 13.64,0 18.88,-2.44 18.88,-13.1 0,-6.86 -2.54,-11.27 -10.94,-13.65l-10.25 -2.78c-4.16,-1.15 -5.93,-2.11 -5.93,-6.25 0,-5.02 2.39,-5.36 8.86,-5.36 5.24,0 11.41,0.14 15.8,0.27l0.62 -6.04c-5.7,-1.29 -11.64,-1.56 -16.72,-1.56 -12.71,0 -18.27,1.83 -18.27,12.56 0,6.99 2.85,11.34 10.71,13.58l10.71 2.99z"/>
  <path class="fil1" d="M273.03 58.54c-16.18,0 -21.89,5.7 -21.89,24.31 0,18.6 5.7,24.31 21.89,24.31 16.26,0 21.96,-5.7 21.96,-24.31 0,-18.6 -5.7,-24.31 -21.96,-24.31zm0 7.27c9.02,0 11.79,4.01 11.79,17.04 0,13.04 -2.77,17.04 -11.79,17.04 -8.94,0 -11.71,-4.01 -11.71,-17.04 0,-13.04 2.77,-17.04 11.71,-17.04z"/>
  <path class="fil1" d="M311.93 60.17l-9.63 0 0 37.27c0,5.64 3.08,9.71 11.95,9.71 7.17,0 14.41,-0.07 21.12,-0.61l-0.39 -6.59 -18.49 0c-3.39,0 -4.55,-1.02 -4.55,-3.87l0 -35.92z"/>
  <path class="fil1" d="M376.65 93.91l4.39 13.24 9.86 0 -15.95 -44.61c-0.46,-1.43 -1.85,-2.24 -3.47,-2.24l-9.4 0c-1.62,0 -3.01,0.81 -3.47,2.24l-15.95 44.61 9.86 0 4.39 -13.24 19.73 0zm-2.31 -6.99l-15.1 0 5.32 -16.16 1.23 -4.01 2.08 0c0.23,1.29 0.77,2.72 1.16,4.01l5.32 16.16z"/>
  <path class="fil1" d="M437.97 107.15l-4.78 -14.67c-1.16,-4.48 -4.47,-6.38 -7.09,-6.93l0 -0.34c7.32,-0.81 9.94,-4.82 9.94,-11.81 0,-10.66 -5.39,-13.72 -18.5,-13.72 -9.09,0 -13.25,0.07 -19.34,0.61l0 46.85 9.56 0 0 -18.81 9.56 0.07c3.24,0 5.09,1.15 6.17,4.21l4.24 14.53 10.25 0zm-30.21 -25.73l0 -14.73 9.56 0c6.78,0 8.94,1.49 8.94,7.26 0,5.77 -2.16,7.4 -8.94,7.47l-9.56 0z"/>
  <path class="fil1" d="M485.51 79.25l-9.4 0 0 17.31c-3.24,1.77 -6.78,3.26 -11.17,3.26 -7.17,0 -9.56,-4.14 -9.56,-16.7 0,-15.28 3.55,-17.11 13.64,-17.11 3.62,0 9.02,0.14 14.03,0.41l0.77 -6.31c-4.7,-1.15 -9.94,-1.56 -15.26,-1.56 -17.19,0 -23.27,5.36 -23.27,24.1 0,16.91 4.85,24.51 16.65,24.51 7.32,0 12.72,-3.12 15.57,-5.5l0.85 4.62 7.17 0 0 -27.02z"/>
  <path class="fil1" d="M519.94 91.33l17.42 -31.03 -10.02 0 -9.71 18.2c-0.92,1.77 -1.54,3.87 -2.16,5.64l-0.62 0c-0.62,-1.77 -1.23,-3.87 -2.16,-5.64l-9.71 -18.2 -10.17 0 17.49 30.89 0 15.96 9.63 0 0 -15.82z"/>
  <path class="fil1" d="M580.07 87.8c3.85,1.09 5.63,1.9 5.63,6.18 0,4.82 -1.93,5.7 -8.86,5.7 -3.7,0 -6.78,-0.07 -16.88,-0.27l-0.62 6.25c7.71,1.36 14.03,1.49 17.26,1.49 13.64,0 18.88,-2.44 18.88,-13.1 0,-6.86 -2.54,-11.27 -10.94,-13.65l-10.25 -2.78c-4.16,-1.15 -5.93,-2.11 -5.93,-6.25 0,-5.02 2.39,-5.36 8.86,-5.36 5.24,0 11.41,0.14 15.8,0.27l0.62 -6.04c-5.7,-1.29 -11.64,-1.56 -16.72,-1.56 -12.71,0 -18.27,1.83 -18.27,12.56 0,6.99 2.85,11.34 10.71,13.58l10.71 2.99z"/>
  <polygon class="fil1" points="644.52,60.3 634.89,60.3 634.89,78.7 613.85,78.7 613.85,60.3 604.21,60.3 604.21,107.15 613.85,107.15 613.85,85.7 634.89,85.7 634.89,107.15 644.52,107.15 "/>
  <path class="fil1" d="M675.14 58.54c-16.18,0 -21.89,5.7 -21.89,24.31 0,18.6 5.7,24.31 21.89,24.31 16.26,0 21.96,-5.7 21.96,-24.31 0,-18.6 -5.7,-24.31 -21.96,-24.31zm0 7.27c9.02,0 11.79,4.01 11.79,17.04 0,13.04 -2.77,17.04 -11.79,17.04 -8.94,0 -11.71,-4.01 -11.71,-17.04 0,-13.04 2.77,-17.04 11.71,-17.04z"/>
  <path class="fil1" d="M705.83 107.15l9.41 0 0 -17.86c3.16,0.34 6.85,0.54 10.62,0.54 12.27,0 16.64,-3.19 16.64,-15.07 0,-11.81 -4.37,-15.07 -17.85,-15.07 -8.88,0 -12.88,0.07 -18.83,0.61l0 46.85zm9.41 -24.24l0 -16.23 9.19 0c6.55,0 8.58,1.63 8.58,8.08 0,6.45 -2.03,8.08 -8.58,8.15l-9.19 0z"/>
 </g>
</svg>
