<svg width="197" height="92" viewBox="0 0 197 92" fill="none" xmlns="http://www.w3.org/2000/svg">
<g clip-path="url(#clip0_730_1902)">
<path fill-rule="evenodd" clip-rule="evenodd" d="M176.09 76.8472L169.111 69.8391L162.132 76.8472L169.11 91.5L176.09 76.8472Z" fill="white"/>
<path fill-rule="evenodd" clip-rule="evenodd" d="M169.078 29.5291C168.119 29.5291 167.181 29.8151 166.383 30.3511C165.585 30.8872 164.963 31.649 164.596 32.5404C164.229 33.4317 164.133 34.4125 164.32 35.3588C164.507 36.305 164.969 37.1742 165.648 37.8564C166.326 38.5386 167.191 39.0032 168.132 39.1914C169.073 39.3796 170.049 39.283 170.935 38.9138C171.822 38.5446 172.579 37.9194 173.112 37.1172C173.645 36.315 173.93 35.3719 173.93 34.4071C173.93 33.1134 173.419 31.8726 172.509 30.9578C171.599 30.043 170.365 29.5291 169.078 29.5291Z" fill="white"/>
<path fill-rule="evenodd" clip-rule="evenodd" d="M175.331 54.45L169.111 48.1852L162.89 54.45C162.573 53.5813 158.405 42.2386 158.405 34.8391C158.405 24.8577 168.362 19.2642 169.11 18.8554C169.858 19.2654 179.814 24.8577 179.814 34.8391C179.814 42.2398 175.646 53.5813 175.33 54.45M169.11 7.64398C167.631 8.40473 148.323 18.6637 148.323 35.054C148.323 49.0749 159.687 70.3397 159.687 70.3397L169.108 60.8507L178.53 70.3397C178.53 70.3397 189.894 49.0737 189.894 35.054C189.897 18.6602 170.588 8.40473 169.111 7.64282L169.11 7.64398Z" fill="white"/>
<path d="M189.896 0.499819L182.793 7.64233L189.896 14.7849L197 7.64234L189.896 0.499819Z" fill="white"/>
<path fill-rule="evenodd" clip-rule="evenodd" d="M123.08 14.7856C123.08 16.2793 122.407 17.1468 121.241 17.1468C120.076 17.1468 119.408 16.2282 119.408 14.7856H113.372C113.54 19.2328 116.098 22.234 121.342 22.234C126.175 22.234 128.935 19.1503 129.12 14.7856H123.08Z" fill="white"/>
<path fill-rule="evenodd" clip-rule="evenodd" d="M110.312 44.7659V23.8669H117.286C117.286 23.8669 117.286 32.8844 117.286 33.5975C117.276 34.1078 117.227 34.6165 117.137 35.119H117.445L125.036 23.8669H131.708V44.7659H124.733C124.733 44.7659 124.733 35.8925 124.733 34.9448C124.739 34.4856 124.79 34.0281 124.885 33.5789H124.582L116.983 44.7659H110.312Z" fill="white"/>
<path fill-rule="evenodd" clip-rule="evenodd" d="M95.9235 38.8031C98.4532 38.8031 100.137 36.8286 100.137 34.3466C100.137 31.8043 98.4532 29.8275 95.9235 29.8275C93.4585 29.8275 91.7108 31.8019 91.7108 34.3466C91.7108 36.8252 93.4585 38.8031 95.9235 38.8031ZM95.9235 23.3327C102.544 23.3327 107.475 28.0377 107.475 34.3466C107.475 40.5929 102.539 45.3002 95.9235 45.3002C89.3705 45.3002 84.4312 40.5917 84.4312 34.3466C84.4324 28.0365 89.3751 23.3315 95.9235 23.3315V23.3327Z" fill="white"/>
<path fill-rule="evenodd" clip-rule="evenodd" d="M76.0762 23.8613C76.0762 23.8613 70.2498 31.4746 70.0153 31.7591C69.7288 32.1157 69.7034 32.3085 69.7034 32.3085H69.4008C69.3241 32.1068 69.2118 31.9206 69.0693 31.7591C68.6592 31.2481 62.6237 23.8613 62.6237 23.8613H57.1253V44.7603H63.847V35.9868C63.8559 35.4749 63.8047 34.9639 63.6945 34.4641H63.9994L69.4042 40.708H69.6953L74.7051 34.4641H75.0066C74.897 34.9639 74.8466 35.475 74.8564 35.9868V44.7603H81.5815V23.8613H76.0762Z" fill="white"/>
<path fill-rule="evenodd" clip-rule="evenodd" d="M11.52 67.0262C6.87066 67.0262 4.2058 62.7289 4.2058 57.8253C5.30547 54.9705 8.72116 52.6662 11.5986 52.6662C15.8078 52.6662 18.4923 55.298 18.4923 59.8032C18.4923 63.9844 15.4578 67.0262 11.5166 67.0262M12.5238 49.1784C9.00879 49.1784 5.32742 51.1424 3.98633 54.0727H3.79457C3.86966 53.7684 3.99557 53.4664 4.01636 53.1772C4.3421 48.6743 6.12907 45.0901 9.59559 43.8508C11.7765 43.0715 13.9365 42.7568 15.5849 42.4048C17.3476 42.0274 19.1565 41.5918 20.2192 41.2689L19.0468 37.7312C17.1143 38.2666 15.3169 38.6604 12.2928 39.2748C11.0141 39.5361 9.61869 39.7626 7.9842 40.4536C2.43962 42.8032 0.00115967 47.4954 0.00115967 56.341C0.00115967 64.2875 3.94474 70.5581 11.5073 70.5581C18.4588 70.5581 22.6819 65.0994 22.6819 59.6197C22.6808 53.2922 18.6506 49.1784 12.5238 49.1784Z" fill="white"/>
<path fill-rule="evenodd" clip-rule="evenodd" d="M29.7155 63.9205C29.7155 63.9205 29.6369 63.9205 29.5237 63.9205C29.6428 63.4949 29.7072 63.0558 29.7155 62.6139V48.946H25.5697V69.845H29.2892L41.1639 54.8218H41.3568C41.235 55.265 41.1698 55.722 41.1627 56.1818V69.845H45.3119V48.946H41.5924L29.7155 63.9205Z" fill="white"/>
<path fill-rule="evenodd" clip-rule="evenodd" d="M61.0897 59.1319V59.039C63.5409 58.1551 64.7433 56.5268 64.7433 54.1087C64.7433 50.6243 61.9214 48.377 56.9255 48.377C54.055 48.377 51.0344 49.1783 48.5393 51.0947L50.1726 54.0599C52.0382 52.5872 54.42 51.8531 56.371 51.8531C59.1006 51.8531 60.5687 52.9902 60.5687 54.8508C60.5687 56.5256 59.2854 57.7045 57.2039 57.7045H53.9199V60.9565H57.436C59.9773 60.9565 61.2479 61.8311 61.2479 63.5523C61.2479 65.5988 59.1999 66.9937 56.0961 66.9937C53.9083 66.9937 51.3462 66.0471 49.6806 64.6975L48.0426 67.708C49.8492 69.3537 52.968 70.5581 56.5997 70.5581C61.5933 70.5581 65.4133 67.924 65.4133 64.0645C65.4133 61.5094 63.8631 59.4594 61.0874 59.1342" fill="white"/>
<path fill-rule="evenodd" clip-rule="evenodd" d="M83.6053 57.5198H72.4503V48.946H68.3046V69.845H72.4503V60.7672H83.6053V69.845H87.7533V48.946H83.6053V57.5198Z" fill="white"/>
<path fill-rule="evenodd" clip-rule="evenodd" d="M94.9751 57.6313C95.503 54.3955 97.8572 51.8822 100.951 51.8822C104.701 51.8822 106.523 54.4164 106.851 57.6313H94.9751ZM100.751 48.377C94.6367 48.377 90.6458 53.2074 90.6458 59.5767C90.6458 65.8648 94.6598 70.557 101.944 70.557C105.459 70.557 108.451 69.4722 110.607 67.7068L108.969 64.6964C106.973 66.1906 104.554 67.0045 102.065 67.0192C97.5153 67.0192 95.3171 64.5326 94.9174 60.8799H110.819C110.86 60.4524 110.887 60.0192 110.887 59.5732C110.882 53.2074 107.822 48.377 100.748 48.377H100.751Z" fill="white"/>
<path fill-rule="evenodd" clip-rule="evenodd" d="M125.16 66.9391C120.927 66.9391 117.811 63.7405 117.811 59.2004C117.811 55.3223 120.297 51.9472 124.922 51.9472C127.024 51.9472 129.142 52.5058 131.575 54.0808C131.575 54.0808 132.631 52.1679 133.262 51.0099C130.772 49.2341 127.895 48.3525 124.811 48.3525C118.111 48.3525 113.622 53.0784 113.622 59.4478C113.622 65.6534 118.101 70.5558 124.879 70.5558C128.202 70.5558 131.1 69.5953 133.256 67.8299L131.618 64.8206C129.743 66.1965 127.481 66.9379 125.16 66.9379" fill="white"/>
</g>
<defs>
<clipPath id="clip0_730_1902">
<rect width="197" height="91" fill="white" transform="translate(0 0.5)"/>
</clipPath>
</defs>
</svg>
