<svg width="38" height="38" viewBox="0 0 38 38" fill="none" xmlns="http://www.w3.org/2000/svg">
<g clip-path="url(#clip0_924_4449)">
<path d="M0.11377 18.24C0.11377 9.68997 0.11377 5.41497 2.77377 2.75497C5.43377 0.0949707 9.70877 0.0949707 18.2588 0.0949707H19.7788C28.3288 0.0949707 32.6038 0.0949707 35.2638 2.75497C37.9238 5.41497 37.9238 9.68997 37.9238 18.24V19.76C37.9238 28.31 37.9238 32.585 35.2638 35.245C32.6038 37.905 28.3288 37.905 19.7788 37.905H18.2588C9.70877 37.905 5.43377 37.905 2.77377 35.245C0.11377 32.585 0.11377 28.31 0.11377 19.76V18.24Z" fill="#FF7700"/>
<path fill-rule="evenodd" clip-rule="evenodd" d="M23.5217 16.587C22.3627 17.746 20.7667 18.468 18.9997 18.468C17.2327 18.468 15.6367 17.746 14.4777 16.587C13.3187 15.428 12.5967 13.832 12.5967 12.065C12.5967 10.298 13.3187 8.70199 14.4777 7.54299C15.6367 6.38399 17.2327 5.66199 18.9997 5.66199C20.7667 5.66199 22.3627 6.38399 23.5217 7.54299C24.6807 8.70199 25.4027 10.298 25.4027 12.065C25.4027 13.832 24.6807 15.428 23.5217 16.587ZM18.9997 9.13899C18.2017 9.13899 17.4797 9.46199 16.9477 9.99399C16.4157 10.526 16.0927 11.248 16.0927 12.046C16.0927 12.844 16.4157 13.566 16.9477 14.098C17.4797 14.63 18.2017 14.953 18.9997 14.953C19.7977 14.953 20.5197 14.63 21.0517 14.098C21.5837 13.566 21.9067 12.844 21.9067 12.046C21.9067 11.248 21.5837 10.526 21.0517 9.99399C20.5197 9.48099 19.7977 9.13899 18.9997 9.13899ZM25.7257 18.487L27.6067 21.052C27.7017 21.185 27.6827 21.356 27.5497 21.451C25.9727 22.743 24.1297 23.598 22.2107 24.054L25.8397 31.046C25.9347 31.255 25.8017 31.483 25.5737 31.483H21.6977C21.5837 31.483 21.4697 31.407 21.4127 31.293L18.9997 25.517L16.5677 31.274C16.5297 31.388 16.4157 31.464 16.2827 31.464H12.4067C12.1787 31.464 12.0457 31.217 12.1407 31.027L15.7697 24.054C13.8507 23.598 12.0267 22.743 10.4307 21.451C10.3167 21.356 10.2787 21.166 10.3737 21.052L12.2547 18.487C12.3687 18.335 12.5587 18.316 12.6917 18.43C14.4587 19.931 16.6437 20.919 18.9807 20.919C21.3177 20.919 23.4837 19.95 25.2697 18.43C25.4217 18.316 25.6307 18.335 25.7257 18.487Z" fill="white"/>
</g>
<defs>
<clipPath id="clip0_924_4449">
<rect width="38" height="38" fill="white"/>
</clipPath>
</defs>
</svg>
