<svg width="32" height="32" viewBox="0 0 32 32" fill="none" xmlns="http://www.w3.org/2000/svg">
<path d="M25.6 0H6.40003C2.86541 0 3.05176e-05 2.86538 3.05176e-05 6.4V25.6C3.05176e-05 29.1346 2.86541 32 6.40003 32H25.6C29.1347 32 32 29.1346 32 25.6V6.4C32 2.86538 29.1347 0 25.6 0Z" fill="white"/>
<path d="M4.60642 20.3407C4.72482 21.2143 4.22402 22.0815 3.40322 22.4159C2.20162 22.9071 0.868819 22.1407 0.69442 20.8575C0.57602 19.9839 1.07682 19.1167 1.89762 18.7823C3.10082 18.2927 4.43202 19.0575 4.60642 20.3407ZM2.06562 16.9599C-0.25278 17.3423 -1.63198 19.7231 -0.80478 21.9151C-0.19358 23.5359 1.52002 24.5215 3.23682 24.2399C5.55522 23.8575 6.93442 21.4767 6.10722 19.2847C5.49442 17.6639 3.78242 16.6783 2.06562 16.9599Z" fill="#616161"/>
<path d="M13.3888 19.587L10.5216 20.355L12.9088 14.6174C12.9872 14.427 12.8128 14.2318 12.6128 14.2846L7.32161 15.7022C6.80001 15.8414 6.51361 16.4206 6.76321 16.9262C6.94721 17.2958 7.39201 17.4638 7.79841 17.355L10.152 16.7246L7.76481 22.467C7.68641 22.6558 7.86081 22.8494 8.05921 22.7966L13.8064 21.2558C14.2112 21.147 14.5136 20.7806 14.488 20.3662C14.4528 19.803 13.9152 19.4446 13.3904 19.5854L13.3888 19.587Z" fill="#616161"/>
<path d="M31.5328 10.1055C31.3936 9.58711 30.8048 9.31031 30.288 9.56791C29.9184 9.75351 29.7456 10.1839 29.8512 10.5775L30.592 13.3439L25.0704 11.0015C24.8784 10.9199 24.6736 11.0943 24.7264 11.2943L26.256 17.0047C26.3616 17.3983 26.7264 17.6847 27.1392 17.6607C27.7152 17.6271 28.0864 17.0911 27.9488 16.5727L27.2016 13.7823L32.7232 16.1263C32.9152 16.2079 33.12 16.0335 33.0672 15.8335L31.5312 10.1023L31.5328 10.1055Z" fill="#616161"/>
<path d="M19.8192 18.0336C17.888 18.5504 16.176 17.9344 15.936 17.04C15.696 16.144 16.8704 14.7552 18.8016 14.2384C20.7328 13.7216 22.4448 14.3376 22.6848 15.232C22.9248 16.1264 21.7504 17.5168 19.8192 18.0336ZM18.3568 12.5776C15.5616 13.3264 13.7232 15.5264 14.2512 17.4928C14.7776 19.4592 17.4704 20.4448 20.264 19.696C23.0592 18.9472 24.8976 16.7472 24.3696 14.7808C23.8432 12.816 21.1504 11.8288 18.3568 12.5776Z" fill="#616161"/>
</svg>
