<svg width="109" height="87" viewBox="0 0 109 87" fill="none" xmlns="http://www.w3.org/2000/svg">
<g clip-path="url(#clip0_191_1833)">
<path fill-rule="evenodd" clip-rule="evenodd" d="M83.0244 0.698223C83.9485 0.306536 85.0173 0.505502 85.7386 1.2035L101.239 16.2035C101.971 16.9119 102.2 17.9935 101.817 18.9377C101.435 19.882 100.519 20.5 99.5 20.5H84C82.6193 20.5 81.5 19.3807 81.5 18V3C81.5 1.9963 82.1003 1.08991 83.0244 0.698223ZM86.5 8.89833V15.5H93.3217L86.5 8.89833Z" fill="#CCCCCC"/>
<path fill-rule="evenodd" clip-rule="evenodd" d="M90.5732 12.141L83.5171 5.5H8C6.34314 5.5 5 6.84315 5 8.5V69.5C5 71.1569 6.34315 72.5 8 72.5H94C95.6569 72.5 97 71.1569 97 69.5V18.1662L90.5732 12.141ZM102 16V69.5C102 73.9183 98.4183 77.5 94 77.5H8C3.58172 77.5 0 73.9183 0 69.5V8.5C0 4.08172 3.58172 0.5 8 0.5H85.5L94 8.5L102 16Z" fill="#CCCCCC"/>
<path fill-rule="evenodd" clip-rule="evenodd" d="M16.8399 43.7156C16.366 43.8061 15.7582 44.0975 15.4892 44.3632C15.0948 44.7526 15 45.1069 15 46.1919C15 47.4085 15.0653 47.5953 15.6796 48.1374C16.115 48.5213 17.0464 48.9224 18.2685 49.2522C19.3187 49.5354 20.3046 49.8698 20.4592 49.9951C20.6141 50.1205 20.7406 50.5051 20.7406 50.8496C20.7406 51.1944 20.6141 51.5554 20.4592 51.6521C20.3046 51.7488 19.0635 51.8297 17.7015 51.8319L15.2251 51.8359L15.1569 52.5259C15.0901 53.2048 15.1087 53.2186 16.2825 53.3577C16.9392 53.4355 18.0335 53.4996 18.7145 53.5C19.3955 53.5002 20.3174 53.4006 20.7631 53.2784C21.2089 53.1561 21.7555 52.8576 21.9779 52.6151C22.2066 52.3654 22.4209 51.7143 22.4714 51.1157C22.5231 50.5024 22.4369 49.8269 22.2665 49.5085C22.1046 49.2067 21.667 48.7565 21.294 48.5082C20.9209 48.2601 19.8588 47.8671 18.9336 47.6351C18.0083 47.403 17.1195 47.1116 16.9583 46.9871C16.7972 46.8628 16.6958 46.4525 16.7332 46.0752L16.801 45.3895L19.3899 45.2783L21.9788 45.1672V44.5003C21.9788 43.8679 21.9207 43.8259 20.8532 43.6863C20.2341 43.6051 19.2717 43.5418 18.7145 43.5451C18.1573 43.5485 17.3138 43.6251 16.8399 43.7156ZM27.3311 43.7018C26.9317 43.8032 26.3513 44.0504 26.0414 44.2509C25.7314 44.4514 25.2982 44.9398 25.079 45.3359C24.7658 45.9016 24.6803 46.5812 24.6803 48.5016C24.6803 50.5604 24.7527 51.0684 25.1384 51.717C25.3905 52.1405 25.9477 52.6906 26.3766 52.9396C27.008 53.3057 27.5501 53.392 29.2226 53.392C30.9578 53.392 31.3878 53.3186 31.9101 52.9336C32.252 52.6815 32.7392 52.2009 32.9927 51.8657C33.3758 51.3589 33.4661 50.8547 33.5278 48.8783C33.5942 46.7452 33.5483 46.3987 33.0807 45.5057C32.7941 44.9582 32.2372 44.3278 31.8432 44.1046C31.4121 43.8606 30.5154 43.6629 29.592 43.6083C28.7478 43.5585 27.7304 43.6005 27.3311 43.7018ZM35.3736 47.8447C35.3736 52.1614 35.3772 52.1931 35.9262 52.7351C36.4542 53.2566 36.6045 53.2808 39.3031 53.2808H42.1272V52.5028V51.7248H39.7578C37.4217 51.7248 37.3855 51.7168 37.1689 51.1546C37.0483 50.841 36.9494 48.9904 36.9494 47.0422V43.5H36.1615H35.3736V47.8447ZM67.4535 43.8341C66.9582 44.007 66.3286 44.4045 66.0541 44.717C65.7799 45.0296 65.4389 45.7089 65.2966 46.2266C65.146 46.7739 65.0836 47.9758 65.1471 49.0986C65.2228 50.4297 65.388 51.2513 65.6798 51.743C65.9123 52.1354 66.3864 52.6651 66.7329 52.92C67.2628 53.3102 67.6548 53.3784 69.1964 53.3493C70.2045 53.3302 71.4641 53.1946 71.9949 53.0476C72.526 52.9009 73.0676 52.6533 73.1986 52.4975C73.3398 52.3294 73.4102 51.368 73.3717 50.1356L73.3067 48.057H72.5188H71.7308L71.6637 49.7177C71.6239 50.7002 71.4861 51.4478 71.3261 51.5483C71.1773 51.6416 70.4157 51.7194 69.6336 51.7214C68.8517 51.7232 68.0264 51.6268 67.8 51.5072C67.5735 51.3876 67.2763 50.9725 67.1395 50.5849C67.0026 50.1972 66.8907 49.2416 66.8907 48.4613C66.8907 47.6809 67.035 46.7014 67.2113 46.2846C67.4686 45.6769 67.7207 45.4766 68.4846 45.2737C69.0084 45.1343 70.2063 45.0534 71.1466 45.0938L72.8564 45.1672L72.9247 44.4756C72.9881 43.8314 72.9346 43.7748 72.1367 43.6445C71.6658 43.5678 70.6221 43.5082 69.8173 43.5122C69.0125 43.5162 67.9488 43.6612 67.4535 43.8341ZM75.0725 43.8232C75.1417 44.0008 75.9629 45.4604 76.8976 47.0667C78.5944 49.9825 78.5971 49.9896 78.5971 51.6339V53.2808H79.4976H80.398V51.6139V49.9469L82.199 46.8208C83.1896 45.1014 84 43.6452 84 43.5845C84 43.524 83.5702 43.5051 83.045 43.5429C82.122 43.6089 82.0637 43.6594 81.2972 45.056L80.5041 46.5009H79.4976C78.4915 46.5009 78.4908 46.5003 77.6162 45.0005C76.7666 43.5436 76.715 43.5 75.844 43.5C75.1518 43.5 74.9755 43.5738 75.0725 43.8232ZM47.2891 44.3336C47.1626 44.6697 46.3548 46.751 45.4937 48.9586C44.6326 51.1664 43.9282 53.0419 43.9282 53.1265C43.9282 53.2115 44.3087 53.2808 44.7738 53.2808C45.5993 53.2808 45.6306 53.2504 46.0844 52.0026L46.5493 50.7245L48.8105 50.6616L51.0716 50.5984L51.5795 51.9397C52.084 53.2715 52.0939 53.2808 52.9847 53.2808C53.7478 53.2808 53.8588 53.2228 53.7276 52.8918C53.6427 52.6777 52.8059 50.5271 51.8683 48.1125L50.1634 43.7223H48.8413C47.6047 43.7223 47.5041 43.7619 47.2891 44.3336ZM55.7847 43.8706C55.7021 43.9519 55.6346 46.1026 55.6346 48.6498V53.2808H56.4225H57.2104V51.3913V49.5019H58.6487C59.6929 49.5019 60.2136 49.6086 60.5486 49.8909C60.8023 50.1047 61.1985 50.9301 61.4288 51.7248L61.8477 53.1697L62.823 53.2395C63.5553 53.2919 63.7705 53.2366 63.6868 53.0172C63.6253 52.8565 63.3453 52.0749 63.0645 51.2802C62.7836 50.4855 62.3155 49.6163 62.0245 49.3489C61.5155 48.8812 61.5121 48.8572 61.9358 48.7245C62.1782 48.6485 62.5819 48.3288 62.8326 48.0138C63.1343 47.6353 63.2887 47.1089 63.2887 46.4598C63.2887 45.9201 63.1444 45.203 62.9679 44.866C62.7914 44.529 62.3815 44.134 62.0569 43.9879C61.7016 43.8281 60.3655 43.7223 58.7008 43.7223C57.1794 43.7223 55.8671 43.789 55.7847 43.8706ZM30.9038 45.5217C31.1073 45.6273 31.386 46.0306 31.5229 46.4182C31.6597 46.8059 31.7716 47.8133 31.7716 48.6569C31.7716 49.5714 31.6381 50.4459 31.4407 50.8225C31.2556 51.1759 30.7946 51.563 30.3941 51.7008C30.0003 51.8361 29.4047 51.9471 29.0701 51.9471C28.7356 51.9471 28.1575 51.8421 27.7854 51.7141C27.413 51.5861 26.9675 51.2202 26.7948 50.9012C26.5954 50.5322 26.4812 49.613 26.4812 48.3733C26.4812 46.629 26.5371 46.3664 27.0155 45.8638C27.3092 45.5551 27.8158 45.2601 28.1411 45.2081C28.4664 45.1561 29.1377 45.1623 29.633 45.2216C30.1282 45.2812 30.7 45.4164 30.9038 45.5217ZM61.142 45.494C61.3432 45.6589 61.4878 46.1344 61.4878 46.6314C61.4878 47.2485 61.3669 47.5495 61.0524 47.7158C60.8128 47.8422 59.8505 47.9458 58.9137 47.9458H57.2104V46.6492C57.2104 45.9359 57.2863 45.2752 57.3793 45.181C57.4723 45.0867 58.2789 45.0547 59.1722 45.1101C60.0652 45.1652 60.9517 45.3381 61.142 45.494ZM49.6227 46.7788C49.9354 47.6039 50.262 48.4544 50.3483 48.6683C50.4885 49.0168 50.3384 49.0573 48.905 49.0573C48.025 49.0573 47.3051 48.9824 47.3053 48.8906C47.3053 48.7988 47.4993 48.2237 47.7364 47.6124C47.9734 47.0011 48.2749 46.226 48.4061 45.8896C48.5374 45.5533 48.7366 45.2783 48.8492 45.2783C48.9617 45.2783 49.3098 45.9537 49.6227 46.7788Z" fill="#EF7F1A"/>
<path fill-rule="evenodd" clip-rule="evenodd" d="M24.6854 18.9028C25.1807 19.7522 28.054 24.7332 31.0705 29.9716C34.0868 35.2097 36.6393 39.4976 36.7423 39.5C36.8453 39.5021 37.6395 38.4405 38.5073 37.1405C39.375 35.8405 40.1662 34.7769 40.2656 34.7769C40.365 34.7769 41.4821 35.7897 42.7481 37.0276L45.0498 39.2787L51.1111 36.1413C54.4449 34.4158 57.3461 33.0042 57.5584 33.0042C57.7705 33.0042 60.6333 34.1254 63.9198 35.4957L69.8953 37.9873L69.9764 31.6114C70.0208 28.1047 70.0007 25.18 69.9316 25.112C69.8625 25.0438 69.0825 25.3776 68.1985 25.8539C67.3145 26.3302 65.2859 27.3941 63.6904 28.2184L60.7897 29.7172L54.5452 25.0243L48.3003 20.3313L46.3867 23.1461C45.3126 24.7261 44.3175 25.8982 44.1184 25.8181C43.9234 25.7395 39.5735 23.9184 34.4523 21.771C29.3311 19.6237 24.8359 17.752 24.4628 17.6122C23.809 17.367 23.8171 17.4134 24.6854 18.9028ZM37.9044 24.6378C40.7939 25.8406 43.2566 26.9214 43.3768 27.0395C43.4969 27.1577 42.822 28.4125 41.8773 29.828C40.9324 31.2438 40.0917 32.4044 40.0091 32.4076C39.9265 32.4106 37.2493 29.7568 34.0598 26.5101L28.2606 20.6072L30.4554 21.529C31.6626 22.036 35.0146 23.435 37.9044 24.6378ZM54.015 26.2421C56.6369 28.2104 58.9158 29.9444 59.0798 30.0954C59.2738 30.2742 59.2215 30.4692 58.9296 30.6553C58.683 30.8125 58.1919 31.0172 57.8381 31.1103C57.4206 31.2202 55.5679 30.593 52.5589 29.3234L47.9231 27.3672L48.3787 25.0151C48.6292 23.7216 48.9275 22.6633 49.0413 22.6633C49.1555 22.6633 51.3935 24.2738 54.015 26.2421ZM39.0506 33.6152C39.1017 33.7428 38.6433 34.5881 38.0318 35.4939C37.4205 36.3995 36.8805 37.1405 36.8318 37.1405C36.7832 37.1405 35.1552 34.3819 33.2136 31.0098C31.2724 27.6378 29.417 24.4138 29.0905 23.8451C28.7604 23.2699 30.8182 25.1569 33.7273 28.0973C36.6041 31.0045 38.9996 33.4878 39.0506 33.6152ZM46.912 25.4934C46.7787 26.0752 46.5991 26.6203 46.5132 26.7048C46.4269 26.7896 46.2194 26.7754 46.0515 26.6732C45.8614 26.5577 45.9782 26.1006 46.3615 25.4618C46.7 24.8975 47.0169 24.436 47.0655 24.436C47.1145 24.436 47.0454 24.912 46.912 25.4934ZM68.7818 33.6252L68.6938 35.6963L65.54 33.3032C63.8054 31.9869 62.3432 30.7886 62.2904 30.6402C62.2378 30.4919 63.657 29.6487 65.4442 28.7662L68.6938 27.1616L68.7818 29.3577C68.8302 30.5655 68.8302 32.4859 68.7818 33.6252ZM46.2723 28.1469C46.3305 28.1974 45.9962 30.2417 45.5298 32.6898L44.6815 37.1411L42.8214 35.3276L40.9615 33.5144L42.937 30.5956C44.6215 28.107 45.0053 27.7046 45.5397 27.8659C45.8845 27.9699 46.214 28.0961 46.2723 28.1469ZM51.6214 30.3634C53.5774 31.1859 55.2889 31.9671 55.4249 32.0989C55.5613 32.231 53.5522 33.4264 50.96 34.755C48.3682 36.084 46.1984 37.1225 46.1377 37.0631C46.0773 37.0034 46.3924 35.1353 46.8378 32.9114C47.2836 30.6875 47.7419 28.8678 47.8567 28.8678C47.9717 28.8678 49.6658 29.5409 51.6214 30.3634ZM62.7643 32.8396C63.6213 33.4804 64.2794 34.0474 64.2265 34.0991C64.1736 34.1511 63.3326 33.845 62.3573 33.419C61.3821 32.9929 60.2461 32.5158 59.8331 32.3589L59.0822 32.0732L59.8307 31.6776C60.2422 31.4601 60.7201 31.3703 60.8928 31.4784C61.0652 31.5863 61.9077 32.199 62.7643 32.8396Z" fill="#EF7F1A"/>
<path d="M90.5 59.5H62.5C61.6716 59.5 61 60.1716 61 61C61 61.8284 61.6716 62.5 62.5 62.5H90.5C91.3284 62.5 92 61.8284 92 61C92 60.1716 91.3284 59.5 90.5 59.5Z" fill="#CCCCCC"/>
<path d="M90.5 64.5H62.5C61.6716 64.5 61 65.1716 61 66C61 66.8284 61.6716 67.5 62.5 67.5H90.5C91.3284 67.5 92 66.8284 92 66C92 65.1716 91.3284 64.5 90.5 64.5Z" fill="#CCCCCC"/>
<path d="M96.5 86.5C103.404 86.5 109 80.9036 109 74C109 67.0964 103.404 61.5 96.5 61.5C89.5964 61.5 84 67.0964 84 74C84 80.9036 89.5964 86.5 96.5 86.5Z" fill="#EF7F1A"/>
<path fill-rule="evenodd" clip-rule="evenodd" d="M104.071 74.8431L97.7071 81.2071C97.3166 81.5976 96.6834 81.5976 96.2929 81.2071L89.9289 74.8431C89.5384 74.4526 89.5384 73.8195 89.9289 73.4289C90.3194 73.0384 90.9526 73.0384 91.3431 73.4289L96 78.0858V66.5H98V78.0858L102.657 73.4289C103.047 73.0384 103.681 73.0384 104.071 73.4289C104.462 73.8195 104.462 74.4526 104.071 74.8431Z" fill="white"/>
</g>
<defs>
<clipPath id="clip0_191_1833">
<rect width="109" height="86" fill="white" transform="translate(0 0.5)"/>
</clipPath>
</defs>
</svg>
