<svg width="20" height="21" viewBox="0 0 20 21" fill="none" xmlns="http://www.w3.org/2000/svg">
<path d="M16.0002 12.5001C15.4093 12.504 14.8267 12.6388 14.2942 12.8947C13.7616 13.1506 13.2924 13.5213 12.9202 13.9801L7.82015 11.6301C8.05994 10.8959 8.05994 10.1044 7.82015 9.37011L12.9202 7.02011C13.5218 7.74608 14.3605 8.23619 15.2883 8.40395C16.2161 8.57172 17.1734 8.40634 17.9911 7.93702C18.8088 7.46769 19.4345 6.72459 19.7577 5.83886C20.0809 4.95312 20.0808 3.9817 19.7575 3.09602C19.4341 2.21035 18.8083 1.46736 17.9905 0.998183C17.1726 0.529008 16.2154 0.363808 15.2876 0.531738C14.3598 0.699668 13.5212 1.18993 12.9197 1.91601C12.3182 2.64208 11.9925 3.55729 12.0002 4.50011C12.0032 4.73835 12.0266 4.97588 12.0702 5.21011L6.79015 7.64011C6.22723 7.08969 5.5144 6.71763 4.74096 6.57054C3.96752 6.42345 3.16787 6.50788 2.4422 6.81325C1.71653 7.11861 1.09711 7.63133 0.66155 8.28718C0.225988 8.94302 -0.00634766 9.71281 -0.00634766 10.5001C-0.00634766 11.2874 0.225988 12.0572 0.66155 12.7131C1.09711 13.3689 1.71653 13.8816 2.4422 14.187C3.16787 14.4923 3.96752 14.5768 4.74096 14.4297C5.5144 14.2826 6.22723 13.9105 6.79015 13.3601L12.0702 15.7901C12.0266 16.0243 12.0032 16.2619 12.0002 16.5001C12.0002 17.2912 12.2347 18.0646 12.6743 18.7224C13.1138 19.3802 13.7385 19.8929 14.4694 20.1956C15.2003 20.4984 16.0046 20.5776 16.7805 20.4233C17.5564 20.2689 18.2692 19.888 18.8286 19.3285C19.388 18.7691 19.769 18.0564 19.9233 17.2805C20.0776 16.5046 19.9984 15.7003 19.6957 14.9694C19.3929 14.2385 18.8802 13.6138 18.2224 13.1742C17.5646 12.7347 16.7913 12.5001 16.0002 12.5001ZM16.0002 2.50011C16.3957 2.50011 16.7824 2.61741 17.1113 2.83718C17.4402 3.05694 17.6965 3.3693 17.8479 3.73475C17.9993 4.1002 18.0389 4.50233 17.9617 4.8903C17.8846 5.27826 17.6941 5.63462 17.4144 5.91433C17.1347 6.19403 16.7783 6.38451 16.3903 6.46169C16.0024 6.53886 15.6002 6.49925 15.2348 6.34787C14.8693 6.1965 14.557 5.94015 14.3372 5.61125C14.1174 5.28236 14.0002 4.89568 14.0002 4.50011C14.0002 3.96968 14.2109 3.46097 14.5859 3.0859C14.961 2.71083 15.4697 2.50011 16.0002 2.50011ZM4.00015 12.5001C3.60459 12.5001 3.21791 12.3828 2.88901 12.1631C2.56011 11.9433 2.30377 11.6309 2.15239 11.2655C2.00102 10.9 1.96141 10.4979 2.03858 10.1099C2.11575 9.72197 2.30623 9.36561 2.58594 9.0859C2.86564 8.8062 3.22201 8.61571 3.60997 8.53854C3.99793 8.46137 4.40006 8.50098 4.76552 8.65236C5.13097 8.80373 5.44333 9.06008 5.66309 9.38897C5.88285 9.71787 6.00015 10.1046 6.00015 10.5001C6.00015 11.0305 5.78944 11.5393 5.41436 11.9143C5.03929 12.2894 4.53058 12.5001 4.00015 12.5001ZM16.0002 18.5001C15.6046 18.5001 15.2179 18.3828 14.889 18.1631C14.5601 17.9433 14.3038 17.6309 14.1524 17.2655C14.001 16.9 13.9614 16.4979 14.0386 16.1099C14.1158 15.722 14.3062 15.3656 14.5859 15.0859C14.8656 14.8062 15.222 14.6157 15.61 14.5385C15.9979 14.4614 16.4001 14.501 16.7655 14.6524C17.131 14.8037 17.4433 15.0601 17.6631 15.389C17.8829 15.7179 18.0002 16.1046 18.0002 16.5001C18.0002 17.0305 17.7894 17.5393 17.4144 17.9143C17.0393 18.2894 16.5306 18.5001 16.0002 18.5001Z" fill="#EF7F1A"/>
</svg>
