<svg width="21" height="21" viewBox="0 0 21 21" fill="none" xmlns="http://www.w3.org/2000/svg">
<path d="M3.2085 10.4999C3.2085 10.2237 3.09875 9.9587 2.9034 9.76335C2.70805 9.568 2.4431 9.45825 2.16683 9.45825H1.12516C0.848896 9.45825 0.583944 9.568 0.388593 9.76335C0.193243 9.9587 0.0834961 10.2237 0.0834961 10.4999C0.0834961 10.7762 0.193243 11.0411 0.388593 11.2365C0.583944 11.4318 0.848896 11.5416 1.12516 11.5416H2.16683C2.4431 11.5416 2.70805 11.4318 2.9034 11.2365C3.09875 11.0411 3.2085 10.7762 3.2085 10.4999ZM3.87516 15.7083L3.13558 16.4478C2.94157 16.643 2.83267 16.907 2.83267 17.1822C2.83267 17.4574 2.94157 17.7214 3.13558 17.9166C3.33075 18.1106 3.59476 18.2195 3.86995 18.2195C4.14515 18.2195 4.40916 18.1106 4.60433 17.9166L5.34391 17.177C5.51456 16.9777 5.60374 16.7214 5.59361 16.4592C5.58349 16.1971 5.47481 15.9484 5.28929 15.7629C5.10378 15.5774 4.85509 15.4687 4.59293 15.4586C4.33076 15.4484 4.07443 15.5376 3.87516 15.7083ZM10.5002 3.20825C10.7764 3.20825 11.0414 3.09851 11.2367 2.90315C11.4321 2.7078 11.5418 2.44285 11.5418 2.16659V1.12492C11.5418 0.848651 11.4321 0.583699 11.2367 0.388349C11.0414 0.192999 10.7764 0.083252 10.5002 0.083252C10.2239 0.083252 9.95894 0.192999 9.76359 0.388349C9.56824 0.583699 9.4585 0.848651 9.4585 1.12492V2.16659C9.4585 2.44285 9.56824 2.7078 9.76359 2.90315C9.95894 3.09851 10.2239 3.20825 10.5002 3.20825ZM16.396 5.64575C16.6693 5.6446 16.9311 5.53611 17.1252 5.34367L17.8647 4.60409C17.9738 4.5107 18.0624 4.39579 18.1249 4.26655C18.1874 4.13732 18.2225 3.99656 18.2281 3.8531C18.2336 3.70964 18.2094 3.56659 18.1571 3.43292C18.1047 3.29924 18.0253 3.17784 17.9238 3.07632C17.8222 2.97481 17.7008 2.89537 17.5672 2.843C17.4335 2.79064 17.2904 2.76646 17.147 2.772C17.0035 2.77754 16.8628 2.81268 16.7335 2.8752C16.6043 2.93773 16.4894 3.02629 16.396 3.13533L15.7085 3.87492C15.5145 4.07009 15.4056 4.3341 15.4056 4.60929C15.4056 4.88449 15.5145 5.1485 15.7085 5.34367C15.8921 5.52634 16.1372 5.63404 16.396 5.64575ZM3.896 5.34367C4.09002 5.53611 4.35189 5.6446 4.62516 5.64575C4.76225 5.64654 4.89815 5.62027 5.02506 5.56843C5.15198 5.51659 5.26741 5.44021 5.36475 5.34367C5.55876 5.1485 5.66765 4.88449 5.66765 4.60929C5.66765 4.3341 5.55876 4.07009 5.36475 3.87492L4.62516 3.13533C4.52872 3.03753 4.41396 2.95967 4.28744 2.90622C4.16091 2.85276 4.02509 2.82475 3.88774 2.82378C3.75038 2.82281 3.61418 2.84891 3.48692 2.90058C3.35965 2.95225 3.2438 3.02848 3.146 3.12492C3.04819 3.22136 2.97033 3.33612 2.91688 3.46265C2.86342 3.58917 2.83541 3.72499 2.83444 3.86234C2.83249 4.13974 2.94081 4.40655 3.13558 4.60409L3.896 5.34367ZM19.8752 9.45825H18.8335C18.5572 9.45825 18.2923 9.568 18.0969 9.76335C17.9016 9.9587 17.7918 10.2237 17.7918 10.4999C17.7918 10.7762 17.9016 11.0411 18.0969 11.2365C18.2923 11.4318 18.5572 11.5416 18.8335 11.5416H19.8752C20.1514 11.5416 20.4164 11.4318 20.6117 11.2365C20.8071 11.0411 20.9168 10.7762 20.9168 10.4999C20.9168 10.2237 20.8071 9.9587 20.6117 9.76335C20.4164 9.568 20.1514 9.45825 19.8752 9.45825ZM17.1252 15.7083C16.9273 15.5982 16.6989 15.5556 16.4746 15.5869C16.2503 15.6183 16.0424 15.7219 15.8822 15.882C15.7221 16.0421 15.6185 16.2501 15.5872 16.4744C15.5558 16.6986 15.5984 16.927 15.7085 17.1249L16.4481 17.8645C16.6432 18.0585 16.9073 18.1674 17.1825 18.1674C17.4576 18.1674 17.7217 18.0585 17.9168 17.8645C18.1108 17.6693 18.2197 17.4053 18.2197 17.1301C18.2197 16.8549 18.1108 16.5909 17.9168 16.3958L17.1252 15.7083ZM10.5002 4.77075C9.36704 4.77075 8.25936 5.10676 7.31721 5.73629C6.37505 6.36582 5.64073 7.26059 5.2071 8.30746C4.77348 9.35433 4.66002 10.5063 4.88108 11.6176C5.10214 12.729 5.64779 13.7498 6.44903 14.5511C7.25027 15.3523 8.27111 15.8979 9.38246 16.119C10.4938 16.3401 11.6458 16.2266 12.6926 15.793C13.7395 15.3594 14.6343 14.625 15.2638 13.6829C15.8933 12.7407 16.2293 11.633 16.2293 10.4999C16.2266 8.98129 15.6221 7.52566 14.5483 6.45183C13.4744 5.378 12.0188 4.77351 10.5002 4.77075ZM10.5002 14.1458C9.77908 14.1458 9.0742 13.9319 8.47465 13.5313C7.87509 13.1307 7.4078 12.5613 7.13185 11.8951C6.85591 11.2289 6.78371 10.4959 6.92438 9.78865C7.06506 9.08143 7.41229 8.4318 7.92217 7.92193C8.43205 7.41205 9.08167 7.06481 9.7889 6.92414C10.4961 6.78346 11.2292 6.85566 11.8954 7.13161C12.5616 7.40755 13.131 7.87485 13.5316 8.4744C13.9322 9.07396 14.146 9.77884 14.146 10.4999C14.146 11.4669 13.7619 12.3942 13.0782 13.0779C12.3944 13.7616 11.4671 14.1458 10.5002 14.1458ZM10.5002 17.7916C10.2239 17.7916 9.95894 17.9013 9.76359 18.0967C9.56824 18.292 9.4585 18.557 9.4585 18.8333V19.8749C9.4585 20.1512 9.56824 20.4161 9.76359 20.6115C9.95894 20.8068 10.2239 20.9166 10.5002 20.9166C10.7764 20.9166 11.0414 20.8068 11.2367 20.6115C11.4321 20.4161 11.5418 20.1512 11.5418 19.8749V18.8333C11.5418 18.557 11.4321 18.292 11.2367 18.0967C11.0414 17.9013 10.7764 17.7916 10.5002 17.7916Z" fill="#9B9B9B"/>
</svg>
