<svg width="38" height="38" viewBox="0 0 38 38" fill="none" xmlns="http://www.w3.org/2000/svg">
<g clip-path="url(#clip0_924_4436)">
<path d="M19 38C29.4934 38 38 29.4934 38 19C38 8.50659 29.4934 0 19 0C8.50659 0 0 8.50659 0 19C0 29.4934 8.50659 38 19 38Z" fill="url(#paint0_linear_924_4436)"/>
<path fill-rule="evenodd" clip-rule="evenodd" d="M8.60061 18.7994C14.1395 16.3862 17.833 14.7953 19.681 14.0266C24.9575 11.832 26.0539 11.4507 26.7685 11.4381C26.9257 11.4354 27.2771 11.4743 27.5048 11.659C27.697 11.815 27.7499 12.0257 27.7752 12.1736C27.8005 12.3214 27.832 12.6583 27.807 12.9215C27.521 15.9259 26.2838 23.2166 25.6543 26.5816C25.388 28.0054 24.8636 28.4828 24.3559 28.5295C23.2525 28.631 22.4147 27.8003 21.346 27.0998C19.6738 26.0036 18.729 25.3213 17.1058 24.2516C15.2299 23.0154 16.446 22.336 17.5151 21.2256C17.7948 20.935 22.6563 16.5131 22.7504 16.112C22.7622 16.0618 22.7731 15.8748 22.662 15.7761C22.5509 15.6773 22.3869 15.7111 22.2686 15.738C22.1009 15.776 19.4294 17.5417 14.2543 21.0351C13.496 21.5558 12.8092 21.8095 12.1938 21.7962C11.5154 21.7816 10.2105 21.4126 9.24035 21.0973C8.05047 20.7105 7.10478 20.506 7.18713 19.8491C7.23002 19.507 7.70118 19.1571 8.60061 18.7994Z" fill="white"/>
</g>
<defs>
<linearGradient id="paint0_linear_924_4436" x1="1900" y1="0" x2="1900" y2="3771.82" gradientUnits="userSpaceOnUse">
<stop stop-color="#2AABEE"/>
<stop offset="1" stop-color="#229ED9"/>
</linearGradient>
<clipPath id="clip0_924_4436">
<rect width="38" height="38" fill="white"/>
</clipPath>
</defs>
</svg>
