<svg width="38" height="38" viewBox="0 0 38 38" fill="none" xmlns="http://www.w3.org/2000/svg">
<g clip-path="url(#clip0_924_4429)">
<mask id="mask0_924_4429" style="mask-type:luminance" maskUnits="userSpaceOnUse" x="0" y="0" width="38" height="38">
<path d="M37.8118 0.5H0.187988V37.5H37.8118V0.5Z" fill="white"/>
</mask>
<g mask="url(#mask0_924_4429)">
<path d="M0.187988 18.26C0.187988 9.88786 0.187988 5.70179 2.83273 3.10089C5.47748 0.5 9.73412 0.5 18.2474 0.5H19.7523C28.2656 0.5 32.5223 0.5 35.167 3.10089C37.8117 5.70179 37.8118 9.88786 37.8118 18.26V19.74C37.8118 28.1121 37.8117 32.2982 35.167 34.8991C32.5223 37.5 28.2656 37.5 19.7523 37.5H18.2474C9.73412 37.5 5.47748 37.5 2.83273 34.8991C0.187988 32.2982 0.187988 28.1121 0.187988 19.74V18.26Z" fill="#0077FF"/>
<path d="M20.2071 27.1555C11.632 27.1555 6.74092 21.3743 6.53711 11.7543H10.8325C10.9736 18.8151 14.1402 21.8059 16.6484 22.4226V11.7543H20.6931V17.8438C23.17 17.5817 25.772 14.8068 26.6499 11.7543H30.6946C30.0205 15.516 27.1987 18.2909 25.1921 19.4317C27.1987 20.3567 30.4125 22.7772 31.6353 27.1555H27.183C26.2268 24.2263 23.8441 21.9601 20.6931 21.6517V27.1555H20.2071Z" fill="white"/>
</g>
</g>
<defs>
<clipPath id="clip0_924_4429">
<rect width="38" height="37" fill="white" transform="translate(0 0.5)"/>
</clipPath>
</defs>
</svg>
