<svg width="32" height="32" viewBox="0 0 32 32" fill="none" xmlns="http://www.w3.org/2000/svg">
<path fill-rule="evenodd" clip-rule="evenodd" d="M2.38557 2.24942C0.158417 4.49885 0.158417 8.11923 0.158417 15.36V16.64C0.158417 23.8808 0.158417 27.5012 2.38557 29.7506C4.61272 32 8.19726 32 15.3663 32H16.6337C23.8027 32 27.3873 32 29.6144 29.7506C31.8416 27.5012 31.8416 23.8808 31.8416 16.64V15.36C31.8416 8.11923 31.8416 4.49885 29.6144 2.24942C27.3873 0 23.8027 0 16.6337 0H15.3663C8.19726 0 4.61272 0 2.38557 2.24942ZM5.50501 9.73341C5.67661 18.0534 9.79539 23.0534 17.0165 23.0534H17.4258V18.2934C20.0793 18.56 22.0858 20.5201 22.891 23.0534H26.6403C25.6106 19.2667 22.9042 17.1734 21.2144 16.3734C22.9042 15.3867 25.2805 12.9867 25.8481 9.73341H22.4421C21.7028 12.3734 19.5116 14.7734 17.4258 15V9.73341H14.0198V18.96C11.9076 18.4267 9.24097 15.8401 9.12216 9.73341H5.50501Z" fill="white"/>
</svg>
