<svg width="33" height="32" viewBox="0 0 33 32" fill="none" xmlns="http://www.w3.org/2000/svg">
<path d="M16.2228 0C7.38628 0 0.222839 7.16344 0.222839 16C0.222839 24.8366 7.38628 32 16.2228 32C25.0594 32 32.2228 24.8366 32.2228 16C32.2228 7.16344 25.0594 0 16.2228 0Z" fill="white"/>
<mask id="mask0_467_608" style="mask-type:alpha" maskUnits="userSpaceOnUse" x="0" y="0" width="33" height="32">
<path d="M16.2228 0C7.38628 0 0.222839 7.16344 0.222839 16C0.222839 24.8366 7.38628 32 16.2228 32C25.0594 32 32.2228 24.8366 32.2228 16C32.2228 7.16344 25.0594 0 16.2228 0Z" fill="#FF5226"/>
</mask>
<g mask="url(#mask0_467_608)">
<path d="M13.745 2.16545L-4.10455 30.0161H4.07785L14.3893 13.9628L14.1376 13.8486L11.2789 25.3366L17.3312 26.4033L23.552 18.5846L23.2149 18.4172L21.1136 27.2982L34.3008 24.7852L31.6106 20.3542L26.8576 21.4422L27.4186 22.0876L29.632 12.8129L24.4757 9.36545L17.7237 17.8561L18.0597 18.0246L20.833 6.89931L13.745 2.16545Z" fill="#616161"/>
</g>
</svg>
